<?xml version="1.0" encoding="utf-8"?>
<!-- Generator: Adobe Illustrator 24.0.3, SVG Export Plug-In . SVG Version: 6.00 Build 0)  -->
<svg version="1.1" id="Layer_1" xmlns="http://www.w3.org/2000/svg" xmlns:xlink="http://www.w3.org/1999/xlink" x="0px" y="0px"
	 viewBox="0 0 206 206" style="enable-background:new 0 0 206 206;" xml:space="preserve">
<style type="text/css">
	.st0{fill:none;stroke:#0051BF;stroke-width:4;}
	.st1{fill:none;stroke:#0051BF;stroke-width:3;stroke-miterlimit:10;}
	.st2{fill:none;stroke:#75AA0E;stroke-width:3;stroke-miterlimit:10;}
</style>
<g>
	<circle class="st0" cx="103.6" cy="102.9" r="100"/>
	<path class="st1" d="M101.3,132.2c7.3-0.9,13.9-2.7,13.9-5.9l0-9c8.2-3.6,14-11.8,14-21.3c0-9.5-5.8-17.7-14-21.3l0-13.6
		c0-6.7-27.2-7-32.6-7c-5.4,0-32.6,0.3-32.6,7l0,65.3c0,6.7,27.2,7,32.6,7c2.2,0,8-0.1,14.1-0.6c0.9,13.3,12,23.9,25.5,23.9
		c14.1,0,25.6-11.5,25.7-25.6l0-44.6 M108.1,61c-4.7,1.2-14.4,2.3-25.5,2.3S61.9,62.1,57.1,61 M82.6,128.6c-5.1,0-9.8-0.3-14-0.6
		l0-60.5c6.1,0.5,11.8,0.6,14,0.6c4,0,20-0.2,28-3l0,8.1c-1.5-0.3-3.1-0.5-4.7-0.5c-12.9,0-23.3,10.4-23.3,23.3
		c0,12.9,10.4,23.3,23.3,23.3c1.6,0,3.2-0.2,4.7-0.5l0,6.7C107.9,126.8,96.3,128.6,82.6,128.6z"/>
	<g>
		<line class="st2" x1="98.4" y1="94.8" x2="112.4" y2="94.8"/>
		<line class="st2" x1="105.4" y1="87.8" x2="105.4" y2="101.8"/>
	</g>
	<path class="st2" d="M145.5,82c-5.9,0-11.6-11.8-11.6-18.7c0-7.8,5.1-14,11.7-14c6.5,0,11.6,6.1,11.6,14
		C157.2,70.2,151.4,82,145.5,82z"/>
</g>
</svg>
