<?xml version="1.0" encoding="utf-8"?>
<!-- Generator: Adobe Illustrator 24.0.3, SVG Export Plug-In . SVG Version: 6.00 Build 0)  -->
<svg version="1.1" id="Layer_1" xmlns="http://www.w3.org/2000/svg" xmlns:xlink="http://www.w3.org/1999/xlink" x="0px" y="0px"
	 viewBox="0 0 206 206" style="enable-background:new 0 0 206 206;" xml:space="preserve">
<style type="text/css">
	.st0{fill:#75AA0E;}
	.st1{fill:none;stroke:#0051BF;stroke-width:4;}
	.st2{fill:#0051BF;stroke:#0051BF;}
</style>
<g>
	<path class="st0" d="M89.3,154.4c-14.5,4.4-29.8-3.7-34.2-18.2c-4.4-14.5,3.7-29.8,18.2-34.2c8.7-2.7,18.2-0.8,25.2,4.9
		c0.7,0.6,0.8,1.6,0.3,2.3c-0.6,0.7-1.6,0.8-2.3,0.3c0,0,0,0,0,0c-10.4-8.4-25.6-6.8-34,3.5s-6.8,25.6,3.5,34
		c10.4,8.4,25.6,6.8,34-3.5c5.1-6.2,6.7-14.6,4.4-22.3c-0.3-0.9,0.2-1.8,1.1-2s1.8,0.2,2,1.1l0,0
		C111.9,134.6,103.7,149.9,89.3,154.4z"/>
	<circle class="st1" cx="103.1" cy="103" r="100"/>
	<path class="st2" d="M151.6,98.2L112,58.6c-9.1-9.1-23.9-9-33,0.1c-9,9.1-9.1,23.8,0,32.9l39.5,39.6c9.1,9.1,23.9,9.1,33,0
		S160.7,107.3,151.6,98.2L151.6,98.2L151.6,98.2z M149.3,128.9c-7.9,7.8-20.6,7.8-28.4,0l-18.6-18.6l7.8-7.8c0.6-0.6,0.6-1.7,0-2.3
		c-0.6-0.6-1.7-0.6-2.3,0l-7.8,7.8L81.3,89.3c-7.8-7.9-7.8-20.6,0-28.4s20.6-7.8,28.4,0l18.6,18.6l-3.5,3.5c-0.6,0.6-0.6,1.7,0,2.3
		c0.6,0.6,1.7,0.6,2.3,0l0,0l3.5-3.5l18.6,18.6C157.1,108.3,157.1,121.1,149.3,128.9z M104.3,66.3c0.6,0.6,0.6,1.7,0,2.3
		c-0.6,0.6-1.7,0.6-2.3,0l0,0c-3.6-3.6-9.4-3.6-13,0c-0.6,0.6-1.6,0.7-2.3,0c-0.6-0.6-0.7-1.6,0-2.3c0,0,0,0,0,0
		C91.6,61.5,99.5,61.5,104.3,66.3L104.3,66.3z M120.3,89.9c0.6,0.6,0.6,1.7,0,2.3l-3.5,3.5c-0.6,0.6-1.7,0.6-2.3,0
		c-0.6-0.6-0.6-1.7,0-2.3l3.5-3.5C118.6,89.3,119.7,89.3,120.3,89.9z"/>
	<path class="st0" d="M69.2,140.2c-0.6-0.6-0.6-1.7,0-2.3c0,0,0,0,0,0l21.9-21.9c0.6-0.6,1.7-0.6,2.3,0s0.6,1.7,0,2.3l-21.9,21.9
		C70.8,140.9,69.8,140.9,69.2,140.2C69.2,140.2,69.2,140.2,69.2,140.2z"/>
</g>
</svg>
