<?xml version="1.0" encoding="utf-8"?>
<!-- Generator: Adobe Illustrator 24.0.3, SVG Export Plug-In . SVG Version: 6.00 Build 0)  -->
<svg version="1.1" id="Layer_1" xmlns="http://www.w3.org/2000/svg" xmlns:xlink="http://www.w3.org/1999/xlink" x="0px" y="0px"
	 viewBox="0 0 206 206" style="enable-background:new 0 0 206 206;" xml:space="preserve">
<style type="text/css">
	.st0{fill:none;stroke:#0051BF;stroke-width:4;}
	.st1{fill:#0086FA;stroke:#0051BF;stroke-miterlimit:10;}
	.st2{fill:#75AA0E;}
</style>
<g>
	<circle class="st0" cx="103.1" cy="103" r="100"/>
	<path class="st1" d="M58.2,106.8c0-14.3,0-28.5,0-42.8c0-8.4,3.5-11.7,11.9-11.8c1.8,0,3.6-0.1,5.4,0c5.5,0.5,10.2-0.6,14.9-4.3
		c8-6.2,19.3-5.5,27.1,1c3,2.5,6,3.6,9.8,3.3c2.9-0.2,5.8-0.1,8.7,0c8.8,0.1,12.2,3.3,12.2,12c0,11.7,0,23.5,0,35.2
		c0,16.8,0,33.6,0,50.4c0,8.7-3.5,12.3-12.1,12.3c-22,0-44,0-66.1,0c-8.3,0-11.8-3.6-11.8-12C58.1,135.7,58.2,121.3,58.2,106.8z
		 M81.8,56.1c-4.5,0-8.7-0.2-12.8,0c-4.2,0.2-6.7,2.3-6.6,6.8c0.1,4.2,0,8.3,0,12.5c0,24.9,0,49.9-0.1,74.8c0,4.4,1.2,7.7,6.1,7.8
		c23.1,0.1,46.2,0.1,69.4,0.1c4.2,0,6.2-2.5,6.2-6.6c0-3.4,0-6.9,0-10.3c0-25.7,0-51.3,0.1-77c0-4.1-1.1-7.4-5.5-7.8
		c-4.5-0.4-9.2-0.1-13.9-0.1c4,15.1,1.4,24.4-8.2,31c-7.9,5.5-19,5.4-27-0.3C80.2,80.4,77.8,71,81.8,56.1z M103.2,87.2
		c10.6,0,19.7-9,19.7-19.6c0-10.6-9.1-19.5-19.8-19.5c-10.8,0-19.8,9-19.7,19.6C83.5,78.3,92.5,87.3,103.2,87.2z"/>
	<path class="st2" d="M133.3,102.7l-40.3,0c-1,0-1.7,0.8-1.7,1.7c0,1,0.8,1.7,1.7,1.7l40.3,0c1,0,1.7-0.8,1.7-1.7
		C135,103.5,134.2,102.7,133.3,102.7z"/>
	<path class="st2" d="M133.2,117.7l-40.3,0c-1,0-1.7,0.8-1.7,1.7c0,1,0.8,1.7,1.7,1.7l40.3,0c1,0,1.7-0.8,1.7-1.7
		C135,118.5,134.2,117.7,133.2,117.7z"/>
	<path class="st2" d="M133.2,132.7l-40.3,0c-1,0-1.7,0.8-1.7,1.7c0,1,0.8,1.7,1.7,1.7l40.3,0c1,0,1.7-0.8,1.7-1.7
		C135,133.5,134.2,132.7,133.2,132.7z"/>
	<path class="st2" d="M83.6,101.3c-0.2-0.2-0.5-0.2-0.6,0l-7.4,7.3l-2.9-2.9c-0.2-0.2-0.5-0.2-0.6,0c-0.2,0.2-0.2,0.5,0,0.6l3.2,3.2
		c0.2,0.2,0.5,0.2,0.6,0l7.7-7.7C83.8,101.8,83.8,101.5,83.6,101.3z"/>
	<path class="st2" d="M83.6,115.2c-0.2-0.2-0.5-0.2-0.6,0l-7.4,7.3l-2.9-2.9c-0.2-0.2-0.5-0.2-0.6,0c-0.2,0.2-0.2,0.5,0,0.6l3.2,3.2
		c0.2,0.2,0.5,0.2,0.6,0l7.7-7.7C83.8,115.7,83.8,115.4,83.6,115.2z"/>
	<path class="st2" d="M83.6,130.2c-0.2-0.2-0.5-0.2-0.6,0l-7.4,7.3l-2.9-2.9c-0.2-0.2-0.5-0.2-0.6,0c-0.2,0.2-0.2,0.5,0,0.6l3.2,3.2
		c0.2,0.2,0.5,0.2,0.6,0l7.7-7.7C83.8,130.7,83.8,130.4,83.6,130.2z"/>
	<polygon id="medical_x5F_icon_3_" class="st2" points="112.7,64.8 105.6,64.8 105.6,57.7 100.5,57.7 100.5,64.8 93.4,64.8 
		93.4,69.9 100.5,69.9 100.5,77 105.6,77 105.6,69.9 112.7,69.9 	"/>
</g>
</svg>
