<?xml version="1.0" encoding="utf-8"?>
<!-- Generator: Adobe Illustrator 24.0.3, SVG Export Plug-In . SVG Version: 6.00 Build 0)  -->
<svg version="1.1" id="Layer_1" xmlns="http://www.w3.org/2000/svg" xmlns:xlink="http://www.w3.org/1999/xlink" x="0px" y="0px"
	 viewBox="0 0 206 206" style="enable-background:new 0 0 206 206;" xml:space="preserve">
<style type="text/css">
	.st0{fill:#0051BF;}
	.st1{fill:#75AA0E;}
	.st2{fill:none;stroke:#0051BF;stroke-width:4;}
	.st3{fill:none;stroke:#FF6161;stroke-width:2;stroke-linecap:round;stroke-linejoin:round;stroke-miterlimit:10;}
</style>
<g>
	<path class="st0" d="M140.1,149.4c1,0,1.7-0.8,1.7-1.7l0.1-96.1c0-2.3-1.9-4.2-4.2-4.2l-16.6,0c-0.3-2.1-2-3.7-4.2-3.7l-7.8,0
		c-1,0-1.7,0.8-1.7,1.7c0,1,0.8,1.7,1.7,1.7l7.8,0c0.4,0,0.7,0.3,0.7,0.7l0,10.4c0,0.4-0.3,0.7-0.7,0.7l-36.1,0
		c-0.4,0-0.7-0.3-0.7-0.7l0-10.4c0-0.4,0.3-0.7,0.7-0.7l28,0c1,0,1.7-0.8,1.7-1.7c0-1-0.8-1.7-1.7-1.7l-28,0c-2.1,0-3.9,1.6-4.2,3.7
		l-16.6,0c-2.3,0-4.2,1.9-4.2,4.2l0,62.8c-2.2,0.1-4,1.9-4,4.2l0,5.1c0,3.8,1.5,7.3,4,9.9l0,25.1c0,2.3,1.9,4.2,4.2,4.2l77.6,0
		c2.3,0,4.2-1.9,4.2-4.2l0-12c0-1-0.8-1.7-1.7-1.7s-1.7,0.8-1.7,1.7l0,12c0,0.4-0.3,0.7-0.7,0.7l-77.6,0c-0.4,0-0.7-0.3-0.7-0.7
		l0-22.4c2.1,1.2,4.5,1.8,7,1.8l52.8,0c0.1,0,0.1,0,0.2,0c3.7-0.1,7.2-1.6,9.9-4.3c2.7-2.7,4.1-6.3,4.1-10.1l0-64.8
		c0-2.3-1.9-4.2-4.2-4.2l-8,0l0-3.8l16.6,0c0.4,0,0.7,0.3,0.7,0.7l-0.1,96.1C138.3,148.6,139.1,149.4,140.1,149.4L140.1,149.4z
		 M66.3,134.5c-6,0-11-4.9-11-11l0-5.1c0-0.4,0.3-0.7,0.7-0.7l47.9,0c0.4,0,0.7,0.3,0.7,0.7l0,5.1c0,4.4,2,8.3,5,11L66.3,134.5z
		 M64.5,97l0,17.3l-5.2,0l0-62.7c0-0.4,0.3-0.7,0.7-0.7l16.6,0l0,3.8l-7.9,0c-2.3,0-4.2,1.9-4.2,4.2l0,40.1 M68,98.9l0-40.1
		c0-0.4,0.3-0.7,0.7-0.7l7.9,0l0,0.1c0,2.3,1.9,4.2,4.2,4.2l36.1,0c2.3,0,4.2-1.9,4.2-4.2l0-0.1l8,0c0.4,0,0.7,0.3,0.7,0.7l0,64.8
		c0,5.9-4.8,10.8-10.7,11c0,0,0,0,0,0c-4.5,0-8.4-2.8-10-6.7l-0.7,0c1,0,1.7-0.8,1.7-1.7s-0.8-1.7-1.7-1.7l-0.2,0c0-0.3,0-0.5,0-0.8
		l0-2l0.2,0c1,0,1.7-0.8,1.7-1.7c0-1-0.8-1.7-1.7-1.7l-0.2,0c-0.2-2.2-2-3.9-4.2-3.9l-35.9,0L68,97"/>
	<path class="st1" d="M80.6,99.6c3,0,5.4-2.4,5.4-5.4c0-3-2.4-5.4-5.4-5.4c-3,0-5.4,2.4-5.4,5.4S77.6,99.6,80.6,99.6L80.6,99.6z
		 M80.6,92.3c1,0,1.9,0.8,1.9,1.9c0,1-0.8,1.9-1.9,1.9s-1.9-0.8-1.9-1.9S79.5,92.3,80.6,92.3z"/>
	<path class="st1" d="M80.6,80.9c3,0,5.4-2.4,5.4-5.4s-2.4-5.4-5.4-5.4c-3,0-5.4,2.4-5.4,5.4C75.2,78.5,77.6,80.9,80.6,80.9
		L80.6,80.9z M80.6,73.7c1,0,1.9,0.8,1.9,1.9s-0.8,1.9-1.9,1.9c-1,0-1.9-0.8-1.9-1.9C78.7,74.5,79.5,73.7,80.6,73.7L80.6,73.7z"/>
	<path class="st1" d="M85,51.3C85,51.3,85,51.3,85,51.3c-1,0-1.8,0.8-1.8,1.7c0,1,0.8,1.8,1.7,1.8l0,0l0,0c1,0,1.7-0.8,1.7-1.7
		C86.8,52.1,86,51.3,85,51.3L85,51.3z"/>
	<path class="st1" d="M112.7,54.8L112.7,54.8c1,0,1.8-0.8,1.8-1.7c0-1-0.8-1.8-1.7-1.8l0,0c0,0,0,0,0,0c-1,0-1.7,0.8-1.7,1.7
		C110.9,54,111.7,54.8,112.7,54.8L112.7,54.8z"/>
	<path class="st1" d="M123.3,73.8l-30.3,0c-1,0-1.7,0.8-1.7,1.7c0,1,0.8,1.7,1.7,1.7l30.3,0c1,0,1.7-0.8,1.7-1.7
		C125,74.6,124.2,73.8,123.3,73.8z"/>
	<path class="st1" d="M123.3,92.5l-30.3,0c-1,0-1.7,0.8-1.7,1.7c0,1,0.8,1.7,1.7,1.7l30.3,0c1,0,1.7-0.8,1.7-1.7
		C125,93.3,124.2,92.5,123.3,92.5z"/>
	<circle class="st2" cx="103.1" cy="103.5" r="100"/>
	<polyline id="overview_x5F_icon_3_" class="st3" points="111.9,110.9 108.1,110.9 106.9,105.1 101.8,105.1 98.9,96.8 96,116.8 
		92,102.4 88.9,111.5 83.6,111.5 	"/>
</g>
</svg>
