<?xml version="1.0" encoding="utf-8"?>
<!-- Generator: Adobe Illustrator 24.0.3, SVG Export Plug-In . SVG Version: 6.00 Build 0)  -->
<svg version="1.1" id="Layer_1" xmlns="http://www.w3.org/2000/svg" xmlns:xlink="http://www.w3.org/1999/xlink" x="0px" y="0px"
	 viewBox="0 0 127.7 127.1" style="enable-background:new 0 0 127.7 127.1;" xml:space="preserve">
<style type="text/css">
	.st0{fill:#D4E9FF;}
	.st1{fill:#0086FA;stroke:#0086FA;stroke-width:2;}
</style>
<g>
	<circle class="st0" cx="64" cy="63.8" r="63"/>
	<path class="st1" d="M55.2,96.1c-9.1,2.8-18.8-2.4-21.5-11.5s2.4-18.8,11.5-21.5c5.5-1.7,11.4-0.5,15.9,3.1c0.4,0.3,0.5,1,0.2,1.4
		c-0.3,0.4-1,0.5-1.4,0.2c0,0,0,0,0,0c-6.5-5.3-16.1-4.3-21.4,2.2c-5.3,6.5-4.3,16.1,2.2,21.4c6.5,5.3,16.1,4.3,21.4-2.2
		c3.2-3.9,4.2-9.2,2.7-14c-0.2-0.5,0.1-1.1,0.7-1.3c0.5-0.2,1.1,0.1,1.3,0.7l0,0C69.5,83.7,64.3,93.3,55.2,96.1z"/>
	<path class="st1" d="M42.6,87.2c-0.4-0.4-0.4-1,0-1.4c0,0,0,0,0,0L56.4,72c0.4-0.4,1-0.4,1.4,0c0.4,0.4,0.4,1,0,1.4L44,87.2
		C43.6,87.6,43,87.6,42.6,87.2C42.6,87.2,42.6,87.2,42.6,87.2z"/>
	<path class="st1" d="M94.5,60.8L69.6,35.8c-5.8-5.7-15.1-5.7-20.8,0.1c-5.7,5.7-5.7,15,0,20.7l24.9,24.9c5.7,5.7,15,5.8,20.8,0
		C100.2,75.8,100.2,66.5,94.5,60.8L94.5,60.8L94.5,60.8z M93,80.1c-5,4.9-13,4.9-17.9,0L63.4,68.3l4.9-4.9c0.4-0.4,0.4-1,0-1.4
		c-0.4-0.4-1-0.4-1.4,0L62,66.9L50.2,55.1c-4.9-4.9-4.9-13,0-17.9s13-4.9,17.9,0L79.9,49l-2.2,2.2c-0.4,0.4-0.4,1,0,1.4
		c0.4,0.4,1,0.4,1.4,0l0,0l2.2-2.2l11.7,11.7C98,67.1,98,75.2,93,80.1z M64.7,40.7c0.4,0.4,0.4,1,0,1.4s-1,0.4-1.4,0l0,0
		c-2.3-2.3-5.9-2.3-8.2,0c-0.4,0.4-1,0.4-1.4,0c-0.4-0.4-0.4-1,0-1.4c0,0,0,0,0,0C56.7,37.6,61.7,37.6,64.7,40.7L64.7,40.7z
		 M74.8,55.5c0.4,0.4,0.4,1,0,1.4l-2.2,2.2c-0.4,0.4-1,0.4-1.4,0s-0.4-1,0-1.4l2.2-2.2C73.7,55.1,74.4,55.1,74.8,55.5z"/>
</g>
</svg>
