<?xml version="1.0" encoding="utf-8"?>
<!-- Generator: Adobe Illustrator 24.0.3, SVG Export Plug-In . SVG Version: 6.00 Build 0)  -->
<svg version="1.1" id="Layer_1" xmlns="http://www.w3.org/2000/svg" xmlns:xlink="http://www.w3.org/1999/xlink" x="0px" y="0px"
	 viewBox="0 0 63.4 63.4" style="enable-background:new 0 0 63.4 63.4;" xml:space="preserve">
<style type="text/css">
	.st0{fill:#0051BF;}
</style>
<path class="st0" d="M57.9,33.9L29.4,5.5C22.9-1.1,12.2-1,5.7,5.6c-6.5,6.5-6.5,17.1,0,23.7l28.5,28.5c6.6,6.6,17.2,6.6,23.7,0
	S64.5,40.5,57.9,33.9L57.9,33.9L57.9,33.9z M56.3,56c-5.7,5.6-14.8,5.6-20.4,0L22.4,42.6l10.5-10.5c0.5-0.5,0.5-1.2,0-1.6
	c-0.5-0.5-1.2-0.5-1.6,0L20.8,41L7.3,27.6c-5.6-5.6-5.6-14.8,0-20.4s14.8-5.6,20.4,0l13.4,13.4l-2.5,2.5c-0.5,0.5-0.5,1.2,0,1.6
	c0.5,0.5,1.2,0.5,1.6,0l0,0l2.5-2.6l13.4,13.4C61.9,41.2,61.9,50.4,56.3,56z M23.9,11c0.5,0.5,0.5,1.2,0,1.6c-0.5,0.5-1.2,0.5-1.6,0
	l0,0c-2.6-2.6-6.8-2.6-9.3,0c-0.4,0.5-1.2,0.5-1.6,0c-0.5-0.4-0.5-1.2,0-1.6c0,0,0,0,0,0C14.7,7.6,20.4,7.6,23.9,11L23.9,11z
	 M40.3,23.1c0.5,0.5,0.5,1.2,0,1.6l-7.4,7.4c-0.5,0.5-1.2,0.5-1.6,0c-0.5-0.5-0.5-1.2,0-1.6l7.4-7.4C39.1,22.6,39.9,22.6,40.3,23.1z
	"/>
</svg>
