<?xml version="1.0" encoding="utf-8"?>
<!-- Generator: Adobe Illustrator 24.0.3, SVG Export Plug-In . SVG Version: 6.00 Build 0)  -->
<svg version="1.1" id="Layer_1" xmlns="http://www.w3.org/2000/svg" xmlns:xlink="http://www.w3.org/1999/xlink" x="0px" y="0px"
	 viewBox="0 0 89.1 89.1" style="enable-background:new 0 0 89.1 89.1;" xml:space="preserve">
<style type="text/css">
	.st0{fill:#8C8C8C;}
</style>
<path class="st0" d="M81.9,47.9L41.2,7.2C31.8-2.1,16.6-2.1,7.2,7.3c-9.3,9.4-9.3,24.5,0,33.8l40.7,40.7c9.4,9.4,24.6,9.4,33.9,0
	C91.2,72.5,91.2,57.3,81.9,47.9L81.9,47.9L81.9,47.9z M79.5,79.5c-8.1,8.1-21.2,8.1-29.2,0L31.1,60.3l15-15c0.7-0.7,0.7-1.7,0-2.4
	c-0.7-0.7-1.7-0.7-2.4,0l10.6-10.6c-0.7,0.7-0.7,1.7,0,2.4c0.7,0.7,1.7,0.7,2.4,0l0,0l3.6-3.6l19.2,19.2
	C87.6,58.3,87.6,71.4,79.5,79.5z M33.2,15.1c0.7,0.7,0.7,1.7,0,2.4c-0.7,0.7-1.7,0.7-2.4,0l0,0c-3.7-3.7-9.7-3.7-13.3,0
	c-0.6,0.7-1.7,0.7-2.4,0c-0.7-0.6-0.7-1.7,0-2.4c0,0,0,0,0,0C20.2,10.2,28.2,10.2,33.2,15.1L33.2,15.1z M56.7,32.4
	c0.7,0.7,0.7,1.7,0,2.4L46.1,45.3c-0.7,0.7-1.7,0.7-2.4,0c-0.7-0.7-0.7-1.7,0-2.4l10.6-10.6C55,31.7,56,31.7,56.7,32.4z"/>
</svg>
