<?xml version="1.0" encoding="utf-8"?>
<!-- Generator: Adobe Illustrator 24.0.3, SVG Export Plug-In . SVG Version: 6.00 Build 0)  -->
<svg version="1.1" id="Layer_1" xmlns="http://www.w3.org/2000/svg" xmlns:xlink="http://www.w3.org/1999/xlink" x="0px" y="0px"
	 viewBox="0 0 89.1 89.1" style="enable-background:new 0 0 89.1 89.1;" xml:space="preserve">
<style type="text/css">
	.st0{fill:#8C8C8C;}
</style>
<path class="st0" d="M81.9,48L41.2,7.4C31.8-2,16.6-1.9,7.3,7.5C-2,16.8-2,31.9,7.3,41.3L48,82c9.4,9.4,24.6,9.4,33.9,0
	S91.3,57.4,81.9,48L81.9,48L81.9,48z M79.6,79.6c-8.1,8.1-21.2,8.1-29.2,0L31.2,60.5l15-15c0.7-0.7,0.7-1.7,0-2.4
	c-0.7-0.7-1.7-0.7-2.4,0l-15,15L9.7,38.9c-8.1-8.1-8.1-21.2,0-29.2s21.2-8.1,29.2,0l19.2,19.2l-3.6,3.6c-0.7,0.7-0.7,1.7,0,2.4
	c0.7,0.7,1.7,0.7,2.4,0l0,0l3.6-3.6l19.2,19.2C87.6,58.5,87.6,71.6,79.6,79.6z M33.3,15.3c0.7,0.7,0.7,1.7,0,2.4
	c-0.7,0.7-1.7,0.7-2.4,0l0,0c-3.7-3.7-9.7-3.7-13.3,0c-0.6,0.7-1.7,0.7-2.4,0c-0.7-0.6-0.7-1.7,0-2.4c0,0,0,0,0,0
	C20.2,10.3,28.3,10.3,33.3,15.3L33.3,15.3z M56.8,32.5c0.7,0.7,0.7,1.7,0,2.4L46.2,45.5c-0.7,0.7-1.7,0.7-2.4,0s-0.7-1.7,0-2.4
	l10.6-10.6C55.1,31.9,56.1,31.9,56.8,32.5z"/>
</svg>
