<?xml version="1.0" encoding="utf-8"?>
<!-- Generator: Adobe Illustrator 24.0.3, SVG Export Plug-In . SVG Version: 6.00 Build 0)  -->
<svg version="1.1" id="Layer_1" xmlns="http://www.w3.org/2000/svg" xmlns:xlink="http://www.w3.org/1999/xlink" x="0px" y="0px"
	 viewBox="0 0 98 98" style="enable-background:new 0 0 98 98;" xml:space="preserve">
<style type="text/css">
	.st0{fill:#D4E9FF;}
	.st1{fill:none;stroke:#0086FA;stroke-width:1.5;stroke-miterlimit:10;}
</style>
<g>
	<g>
		<g>
			<circle class="st0" cx="49.1" cy="49.1" r="48"/>
		</g>
	</g>
	<g>
		<g>
			<g>
				<g>
					<g>
						<path class="st1" d="M48,63.8c3.7-0.5,7-1.3,7-3v-4.5c4.1-1.8,7-5.9,7-10.7s-2.9-8.9-7-10.7V28c0-3.3-13.7-3.5-16.4-3.5
							c-2.7,0-16.4,0.2-16.4,3.5v32.8c0,3.3,13.7,3.5,16.4,3.5c1.1,0,4,0,7.1-0.3c0.5,6.7,6,12,12.9,12c7.1,0,12.9-5.8,12.9-12.9
							V40.8 M38.5,26.9c5.6,0,10.4,0.6,12.8,1.2c-2.4,0.6-7.2,1.2-12.8,1.2S28.1,28.6,25.7,28C28.1,27.4,32.9,26.9,38.5,26.9z
							 M38.5,62c-2.6,0-5-0.1-7-0.3V31.3c3,0.3,5.9,0.3,7,0.3c2,0,10-0.1,14.1-1.5v4.1c-0.8-0.2-1.5-0.2-2.3-0.2
							c-6.5,0-11.7,5.3-11.7,11.7s5.3,11.7,11.7,11.7c0.8,0,1.6-0.1,2.3-0.2v3.3C51.2,61.1,45.4,62,38.5,62z"/>
						<g>
							<line class="st1" x1="46.5" y1="45" x2="53.5" y2="45"/>
							<line class="st1" x1="50" y1="41.5" x2="50" y2="48.6"/>
						</g>
					</g>
				</g>
			</g>
			<path class="st1" d="M70.2,38.6c-3,0-5.9-5.9-5.9-9.4c0-3.9,2.6-7,5.9-7s5.9,3.1,5.9,7C76,32.6,73.1,38.6,70.2,38.6z"/>
		</g>
	</g>
</g>
</svg>
