<?xml version="1.0" encoding="utf-8"?>
<!-- Generator: Adobe Illustrator 24.0.3, SVG Export Plug-In . SVG Version: 6.00 Build 0)  -->
<svg version="1.1" id="Layer_1" xmlns="http://www.w3.org/2000/svg" xmlns:xlink="http://www.w3.org/1999/xlink" x="0px" y="0px"
	 viewBox="0 0 238 241" style="enable-background:new 0 0 238 241;" xml:space="preserve">
<style type="text/css">
	.st0{fill:#FFFFFF;stroke:#DDDDDD;stroke-width:6;stroke-miterlimit:10;}
</style>
<g>
	<g>
		<circle class="st0" cx="118.7" cy="120.6" r="114.7"/>
		<g>
			<path d="M129.9,144.3v-12.8c0-5-4.1-9.1-9.1-9.1s-9.1,4.1-9.1,9.1V143c0,13.9-5.1,27.2-14.4,37.5l-12.8,14.2
				c-1.1,1.2-1,3,0.2,4.1c1.2,1.1,3,1,4.1-0.2l12.8-14.2c10.2-11.4,15.9-26.1,15.9-41.4v-11.5c0-1.8,1.5-3.3,3.3-3.3
				s3.3,1.5,3.3,3.3v12.8c0,17.1-6.3,33.4-17.8,46.1l-12.5,13.7c-1.1,1.2-1,3,0.2,4.1c0.6,0.5,1.3,0.8,2,0.8c0.8,0,1.6-0.3,2.2-1
				l12.5-13.7C123,180.6,129.9,162.8,129.9,144.3z"/>
			<path d="M142.3,131.5c0-11.9-9.7-21.5-21.5-21.5s-21.5,9.7-21.5,21.5V143c0,10.8-4,21.2-11.2,29.2l-9.1,10.1
				c-1.1,1.2-1,3,0.2,4.1c1.2,1.1,3,1,4.1-0.2l9.1-10.1c8.2-9.1,12.7-20.9,12.7-33.1v-11.5c0-8.7,7.1-15.7,15.7-15.7
				s15.7,7.1,15.7,15.7v12.8c0,20.2-7.5,39.5-21,54.4l-10.5,11.6c-1.1,1.2-1,3,0.2,4.1c0.6,0.5,1.3,0.8,2,0.8c0.8,0,1.6-0.3,2.2-1
				l10.5-11.6c14.5-16,22.6-36.7,22.6-58.4V131.5z"/>
			<path d="M154.7,131.5c0-18.7-15.2-34-34-34s-34,15.2-34,34V143c0,7.7-2.8,15.2-8,20.9l-8.2,9.1c-1.1,1.2-1,3,0.2,4.1
				c1.2,1.1,3,1,4.1-0.2l8.2-9.1c6.1-6.8,9.5-15.6,9.5-24.8v-11.5c0-15.5,12.6-28.1,28.1-28.1s28.1,12.6,28.1,28.1v12.8
				c0,23.3-8.6,45.6-24.3,62.8l-2.9,3.2c-1.1,1.2-1,3,0.2,4.1c0.6,0.5,1.3,0.8,2,0.8c0.8,0,1.6-0.3,2.2-1l2.9-3.2
				c16.6-18.3,25.8-42,25.8-66.7L154.7,131.5L154.7,131.5z"/>
			<path d="M74.4,131.5c0,1.6,1.3,2.9,2.9,2.9s2.9-1.3,2.9-2.9c0-9.8,3.6-19.3,10-26.7c6.4-7.3,15.2-12.1,24.7-13.5
				c1.6-0.2,2.7-1.7,2.5-3.3c-0.2-1.6-1.7-2.7-3.3-2.5c-10.9,1.6-21,7-28.3,15.4C78.5,109.5,74.4,120.3,74.4,131.5z"/>
			<path d="M80.2,143c0-1.6-1.3-2.9-2.9-2.9s-2.9,1.3-2.9,2.9c0,4.7-1.7,9.1-4.8,12.6l-7.3,8.1c-1.1,1.2-1,3,0.2,4.1
				c0.6,0.5,1.3,0.7,1.9,0.7c0.8,0,1.6-0.3,2.2-1l7.3-8.1C78,155,80.2,149.1,80.2,143z"/>
			<path d="M161.4,169c-1.6-0.4-3.1,0.5-3.6,2.1c-1.1,4.1-2.4,8.2-4,12.1c-0.6,1.5,0.1,3.2,1.6,3.8c0.4,0.1,0.7,0.2,1.1,0.2
				c1.2,0,2.3-0.7,2.7-1.8c1.6-4.2,3.1-8.5,4.2-12.8C163.9,171,163,169.4,161.4,169z"/>
			<path d="M151.7,97c-1.2-1.1-3-1-4.1,0.2c-1.1,1.2-1,3,0.2,4.1c8.6,7.7,13.5,18.7,13.5,30.2v12.8c0,4.8-0.3,9.7-1,14.5
				c-0.2,1.6,0.9,3.1,2.5,3.3c0.1,0,0.3,0,0.4,0c1.4,0,2.7-1.1,2.9-2.5c0.7-5,1-10.2,1-15.3v-12.8C167.2,118.4,161.5,105.8,151.7,97
				z"/>
			<path d="M138.1,94.9c0.4,0.2,0.8,0.3,1.2,0.3c1.1,0,2.1-0.6,2.6-1.7c0.7-1.5,0.1-3.2-1.4-3.9c-4.2-2-8.7-3.3-13.2-4
				c-1.6-0.2-3.1,0.9-3.3,2.5c-0.2,1.6,0.9,3.1,2.5,3.3C130.6,92,134.5,93.1,138.1,94.9z"/>
			<path d="M120.8,72.7c-1.1,0-2.2,0-3.3,0.1c-1.6,0.1-2.8,1.5-2.7,3.1c0.1,1.6,1.5,2.8,3.1,2.7c1-0.1,2-0.1,3-0.1
				c29.2,0,53,23.8,53,53v12.8c0,1.6,1.3,2.9,2.9,2.9c1.6,0,2.9-1.3,2.9-2.9v-12.8C179.6,99.1,153.2,72.7,120.8,72.7z"/>
			<path d="M88.9,88.5c0.6,0,1.2-0.2,1.7-0.5c4.8-3.4,10.2-5.9,15.8-7.5c1.5-0.4,2.4-2,2-3.6c-0.4-1.5-2-2.4-3.6-2
				c-6.3,1.8-12.2,4.6-17.6,8.3c-1.3,0.9-1.6,2.7-0.7,4.1C87.1,88.1,88,88.5,88.9,88.5z"/>
			<path d="M67.8,143v-11.5c0-13.5,5.1-26.4,14.4-36.3c1.1-1.2,1-3-0.1-4.1c-1.2-1.1-3-1-4.1,0.1c-10.3,11-16,25.3-16,40.3V143
				c0,1.6-0.6,3.1-1.6,4.3l-3.6,4c-1.1,1.2-1,3,0.2,4.1c0.6,0.5,1.3,0.7,1.9,0.7c0.8,0,1.6-0.3,2.2-1l3.6-4
				C66.7,149,67.8,146.1,67.8,143z"/>
			<path d="M188.3,108.9c-3.2-9.5-8.3-18.1-15.1-25.5c-1.1-1.2-2.9-1.3-4.1-0.2c-1.2,1.1-1.3,2.9-0.2,4.1
				c6.3,6.8,10.9,14.7,13.9,23.4c0.4,1.2,1.5,2,2.8,2c0.3,0,0.6,0,0.9-0.2C188,112,188.8,110.4,188.3,108.9z"/>
			<path d="M143.8,64.1c-1.5-0.5-3.2,0.3-3.7,1.8c-0.5,1.5,0.3,3.2,1.8,3.7c6.4,2.2,12.4,5.4,17.9,9.5c0.5,0.4,1.1,0.6,1.7,0.6
				c0.9,0,1.8-0.4,2.3-1.2c1-1.3,0.7-3.1-0.6-4.1C157.3,70,150.8,66.5,143.8,64.1z"/>
			<path d="M75.5,84.3c12.2-11.7,28.3-18.2,45.2-18.2c3.1,0,6.3,0.2,9.4,0.7c1.6,0.2,3.1-0.9,3.3-2.5c0.2-1.6-0.9-3.1-2.5-3.3
				c-3.4-0.5-6.8-0.7-10.2-0.7c-18.4,0-35.9,7-49.3,19.8C58.2,92.9,50.4,110,49.6,128.3c-0.1,1.6,1.2,3,2.8,3c0,0,0.1,0,0.1,0
				c1.5,0,2.8-1.2,2.9-2.8C56.2,111.7,63.3,96,75.5,84.3z"/>
			<path d="M120.8,47.9c-6.5,0-13,0.8-19.3,2.2c-1.6,0.4-2.5,1.9-2.2,3.5c0.4,1.6,1.9,2.5,3.5,2.2c5.8-1.4,11.9-2.1,17.9-2.1
				c21.3,0,41.3,8.5,56.1,23.9c0.6,0.6,1.3,0.9,2.1,0.9c0.7,0,1.5-0.3,2-0.8c1.2-1.1,1.2-3,0.1-4.1c-7.7-8-16.8-14.4-27-18.8
				C143.5,50.2,132.3,47.9,120.8,47.9z"/>
			<path d="M55.4,84.1c0.5,0.4,1.2,0.6,1.8,0.6c0.9,0,1.7-0.4,2.3-1.1c8.3-10.6,19.2-18.9,31.6-24c1.5-0.6,2.2-2.3,1.6-3.8
				c-0.6-1.5-2.3-2.2-3.8-1.6c-13.3,5.5-25,14.4-33.9,25.8C53.9,81.3,54.1,83.2,55.4,84.1z"/>
			<path d="M80.4,50.5c0.4,0,0.9-0.1,1.3-0.3c12.3-5.9,25.4-8.9,39.1-8.9c7.1,0,14.2,0.8,21.1,2.5c1.6,0.4,3.1-0.6,3.5-2.1
				c0.4-1.6-0.6-3.1-2.1-3.5c-7.3-1.8-14.9-2.7-22.5-2.7c-14.6,0-28.6,3.2-41.6,9.5c-1.4,0.7-2.1,2.4-1.4,3.9
				C78.3,49.9,79.3,50.5,80.4,50.5z"/>
			<path d="M154.1,47.7c3,1.2,6,2.6,8.8,4.1c0.4,0.2,0.9,0.3,1.4,0.3c1,0,2.1-0.6,2.6-1.5c0.8-1.4,0.2-3.2-1.2-3.9
				c-3-1.6-6.2-3.1-9.4-4.3c-1.5-0.6-3.2,0.1-3.8,1.6C151.8,45.4,152.6,47.1,154.1,47.7z"/>
		</g>
	</g>
</g>
</svg>
