<?xml version="1.0" encoding="utf-8"?>
<!-- Generator: Adobe Illustrator 24.0.3, SVG Export Plug-In . SVG Version: 6.00 Build 0)  -->
<svg version="1.1" id="Layer_1" xmlns="http://www.w3.org/2000/svg" xmlns:xlink="http://www.w3.org/1999/xlink" x="0px" y="0px"
	 viewBox="0 0 98 98" style="enable-background:new 0 0 98 98;" xml:space="preserve">
<style type="text/css">
	.st0{fill:#D4E9FF;}
	.st1{fill:none;stroke:#0086FA;stroke-width:4;}
</style>
<g>
	<g>
		<circle class="st0" cx="49" cy="49" r="48"/>
	</g>
	<path id="Shape_22_" class="st1" d="M70.9,65.2L65,71.1c0,0-9.9,4.6-26.3-11.8S26.9,33,26.9,33l5.9-5.9c0.5-0.5,1.2-0.8,2-0.8
		s1.5,0.3,2,0.8l6.6,6.6c1.1,1.1,1.1,2.9,0,3.9L39,41.9c-0.6,0.6-0.7,1.4-0.3,2.2c1.7,3.2,4,6.1,6.6,8.6c2.5,2.7,5.4,4.9,8.6,6.6
		c0.7,0.4,1.6,0.2,2.2-0.3l4.3-4.3c1.1-1.1,2.9-1.1,3.9,0l6.6,6.6c0.5,0.5,0.8,1.2,0.8,2C71.7,64,71.4,64.7,70.9,65.2L70.9,65.2z"/>
</g>
</svg>
