<?xml version="1.0" encoding="utf-8"?>
<!-- Generator: Adobe Illustrator 24.0.3, SVG Export Plug-In . SVG Version: 6.00 Build 0)  -->
<svg version="1.1" id="Layer_1" xmlns="http://www.w3.org/2000/svg" xmlns:xlink="http://www.w3.org/1999/xlink" x="0px" y="0px"
	 viewBox="0 0 97 97" style="enable-background:new 0 0 97 97;" xml:space="preserve">
<style type="text/css">
	.st0{fill:#D4E9FF;}
	.st1{fill:#0086FA;stroke:#0086FA;stroke-width:2;}
</style>
<g>
	<circle class="st0" cx="48.3" cy="48.8" r="48"/>
	<g>
		<path class="st1" d="M70.8,39.9l-22-11c-0.3-0.1-0.6-0.1-0.9,0l-22,11c-0.5,0.2-0.7,0.8-0.4,1.3c0.2,0.5,0.8,0.7,1.3,0.4l4.6-2.3
			v28.4c0,0.6,0.4,1,1,1h11h10h11c0.6,0,1-0.4,1-1V39.4l4.6,2.3c0.1,0.1,0.3,0.1,0.4,0.1c0.4,0,0.7-0.2,0.9-0.6
			C71.5,40.7,71.3,40.1,70.8,39.9z M44.3,66.8v-16h8v16H44.3z M63.3,66.8h-9V49.8c0-0.6-0.4-1.1-1-1.1h-10c-0.6,0-1,0.5-1,1.1v16.9
			h-9V38.4l15-7.5l15,7.5V66.8z"/>
	</g>
</g>
</svg>
