<?xml version="1.0" encoding="utf-8"?>
<!-- Generator: Adobe Illustrator 24.0.3, SVG Export Plug-In . SVG Version: 6.00 Build 0)  -->
<svg version="1.1" id="Layer_1" xmlns="http://www.w3.org/2000/svg" xmlns:xlink="http://www.w3.org/1999/xlink" x="0px" y="0px"
	 viewBox="0 0 48 64" style="enable-background:new 0 0 48 64;" xml:space="preserve">
<style type="text/css">
	.st0{fill:url(#SVGID_1_);}
	.st1{fill:url(#SVGID_2_);}
</style>
<g>
	<g>
		<linearGradient id="SVGID_1_" gradientUnits="userSpaceOnUse" x1="0.2253" y1="209.4085" x2="46.7253" y2="209.4085">
			<stop  offset="0" style="stop-color:#FFFFFF"/>
			<stop  offset="1" style="stop-color:#E9F6F6"/>
		</linearGradient>
		<path class="st0" d="M45.4,201.7h-3.9v-5.2c0-10-8.1-18.1-18.1-18.1s-18.1,8.1-18.1,18.1v5.2H1.5c-0.7,0-1.3,0.6-1.3,1.3v32.3
			c0,2.8,2.3,5.2,5.2,5.2h36.2c2.8,0,5.2-2.3,5.2-5.2V203C46.7,202.2,46.1,201.7,45.4,201.7z M27.3,228.6c0,0.4-0.1,0.7-0.3,1
			c-0.2,0.3-0.6,0.4-1,0.4h-5.2c-0.4,0-0.7-0.2-1-0.4c-0.2-0.3-0.4-0.6-0.3-1l0.8-7.3c-1.3-1-2.1-2.5-2.1-4.2c0-2.8,2.3-5.2,5.2-5.2
			s5.2,2.3,5.2,5.2c0,1.7-0.8,3.2-2.1,4.2L27.3,228.6z M33.8,201.7H13.1v-5.2c0-5.7,4.6-10.3,10.3-10.3s10.3,4.6,10.3,10.3V201.7z"
			/>
	</g>
</g>
<g>
	<g>
		<linearGradient id="SVGID_2_" gradientUnits="userSpaceOnUse" x1="0.9105" y1="32.1298" x2="47.4105" y2="32.1298">
			<stop  offset="0" style="stop-color:#FFFFFF"/>
			<stop  offset="1" style="stop-color:#E9F6F6"/>
		</linearGradient>
		<path class="st1" d="M46.1,24.4h-3.9v-5.2c0-10-8.1-18.1-18.1-18.1S6.1,9.2,6.1,19.2v5.2H2.2c-0.7,0-1.3,0.6-1.3,1.3V58
			c0,2.8,2.3,5.2,5.2,5.2h36.2c2.8,0,5.2-2.3,5.2-5.2V25.7C47.4,25,46.8,24.4,46.1,24.4z M28,51.4c0,0.4-0.1,0.7-0.3,1
			c-0.2,0.3-0.6,0.4-1,0.4h-5.2c-0.4,0-0.7-0.2-1-0.4c-0.2-0.3-0.4-0.6-0.3-1l0.8-7.3c-1.3-1-2.1-2.5-2.1-4.2c0-2.8,2.3-5.2,5.2-5.2
			s5.2,2.3,5.2,5.2c0,1.7-0.8,3.2-2.1,4.2L28,51.4z M34.5,24.4H13.8v-5.2c0-5.7,4.6-10.3,10.3-10.3s10.3,4.6,10.3,10.3V24.4z"/>
	</g>
</g>
</svg>
