<?xml version="1.0" encoding="utf-8"?>
<!-- Generator: Adobe Illustrator 24.0.3, SVG Export Plug-In . SVG Version: 6.00 Build 0)  -->
<svg version="1.1" id="Layer_1" xmlns="http://www.w3.org/2000/svg" xmlns:xlink="http://www.w3.org/1999/xlink" x="0px" y="0px"
	 viewBox="0 0 97 97" style="enable-background:new 0 0 97 97;" xml:space="preserve">
<style type="text/css">
	.st0{fill:#D4E9FF;}
	.st1{fill:#0086FA;stroke:#0086FA;stroke-width:2;}
</style>
<g>
	<circle class="st0" cx="48.2" cy="48.7" r="48"/>
	<path class="st1" d="M41.5,73.3c-6.9,2.1-14.3-1.8-16.4-8.7c-2.1-6.9,1.8-14.3,8.7-16.4c4.2-1.3,8.7-0.4,12.1,2.4
		c0.3,0.3,0.4,0.8,0.1,1.1C45.9,52,45.4,52,45,51.8c0,0,0,0,0,0c-5-4-12.3-3.3-16.3,1.7s-3.3,12.3,1.7,16.3s12.3,3.3,16.3-1.7
		c2.4-3,3.2-7,2.1-10.7c-0.1-0.4,0.1-0.8,0.5-1c0.4-0.1,0.8,0.1,1,0.5l0,0C52.4,63.9,48.5,71.2,41.5,73.3z"/>
	<path class="st1" d="M31.9,66.6c-0.3-0.3-0.3-0.8,0-1.1c0,0,0,0,0,0L42.4,55c0.3-0.3,0.8-0.3,1.1,0c0.3,0.3,0.3,0.8,0,1.1L33,66.6
		C32.7,66.9,32.2,66.9,31.9,66.6C31.9,66.6,31.9,66.6,31.9,66.6z"/>
	<path class="st1" d="M71.5,46.4l-19-19C48.1,23,41,23,36.6,27.4c-4.3,4.4-4.3,11.4,0,15.8l19,19c4.4,4.4,11.5,4.4,15.8,0
		C75.8,57.9,75.8,50.8,71.5,46.4L71.5,46.4L71.5,46.4z M70.4,61.1c-3.8,3.8-9.9,3.8-13.6,0l-8.9-9l3.7-3.7c0.3-0.3,0.3-0.8,0-1.1
		c-0.3-0.3-0.8-0.3-1.1,0l-3.7,3.7l-8.9-9c-3.8-3.8-3.8-9.9,0-13.6c3.8-3.8,9.9-3.8,13.6,0l8.9,9l-1.7,1.7c-0.3,0.3-0.3,0.8,0,1.1
		c0.3,0.3,0.8,0.3,1.1,0l0,0l1.7-1.7l8.9,9C74.1,51.3,74.1,57.4,70.4,61.1z M48.8,31.1c0.3,0.3,0.3,0.8,0,1.1
		c-0.3,0.3-0.8,0.3-1.1,0l0,0c-1.7-1.7-4.5-1.7-6.2,0c-0.3,0.3-0.8,0.3-1.1,0s-0.3-0.8,0-1.1c0,0,0,0,0,0
		C42.7,28.8,46.4,28.8,48.8,31.1L48.8,31.1z M56.4,42.4c0.3,0.3,0.3,0.8,0,1.1l-1.7,1.7c-0.3,0.3-0.8,0.3-1.1,0
		c-0.3-0.3-0.3-0.8,0-1.1l1.7-1.7C55.6,42.1,56.1,42.1,56.4,42.4z"/>
</g>
</svg>
