<?xml version="1.0" encoding="utf-8"?>
<!-- Generator: Adobe Illustrator 24.0.3, SVG Export Plug-In . SVG Version: 6.00 Build 0)  -->
<svg version="1.1" id="Layer_1" xmlns="http://www.w3.org/2000/svg" xmlns:xlink="http://www.w3.org/1999/xlink" x="0px" y="0px"
	 viewBox="0 0 103 78" style="enable-background:new 0 0 103 78;" xml:space="preserve">
<style type="text/css">
	.st0{fill:#FFFFFF;stroke:#FFFFFF;stroke-width:3;stroke-miterlimit:10;}
	.st1{fill:#FFFFFF;}
	.st2{fill:none;stroke:#FFFFFF;stroke-width:6;stroke-linecap:round;stroke-linejoin:round;stroke-miterlimit:10;}
</style>
<g>
	<path class="st0" d="M85.2,62.3c9.1-4.4,14.5-11.8,14.5-19.9c0-11.5-10.9-21.3-25.9-23.3c-0.9-0.1-1.6,0.4-1.8,1.3
		c-0.1,0.8,0.5,1.6,1.3,1.7c13.4,1.8,23.2,10.4,23.2,20.3c0,7-4.8,13.4-12.8,17.3c-1.6,0.8-2.4,2.4-2,4c0.8,3.4,2.4,6.5,3.7,8.7
		c-9.2-1.5-12.7-5.7-13.8-7.5c-0.7-1.1-2-1.8-3.3-1.8c0,0,0,0,0,0l-0.1,0c-1.7,0-3.5-0.1-5.1-0.3c-0.8-0.1-1.6,0.5-1.8,1.3
		c-0.1,0.8,0.5,1.6,1.3,1.7c1.8,0.2,3.7,0.4,5.6,0.4l0.1,0h0c0.3,0,0.5,0.1,0.6,0.3c4.2,7,13.9,8.7,17.9,9.2c0.9,0.1,1.7-0.3,2.2-1
		c0.5-0.7,0.5-1.6,0-2.3c-1.2-1.8-3.3-5.3-4.2-9.2C84.8,62.8,84.9,62.5,85.2,62.3L85.2,62.3z"/>
	<path class="st1" d="M26.4,28.4c-3,0-5.4,2.3-5.4,5.1s2.4,5.1,5.4,5.1s5.4-2.3,5.4-5.1S29.4,28.4,26.4,28.4z M26.4,35.7
		c-1.3,0-2.3-1-2.3-2.2c0-1.2,1-2.2,2.3-2.2c1.3,0,2.3,1,2.3,2.2C28.7,34.8,27.7,35.7,26.4,35.7z"/>
	<path class="st1" d="M41.9,28.4c-3,0-5.4,2.3-5.4,5.1s2.4,5.1,5.4,5.1c3,0,5.4-2.3,5.4-5.1S44.8,28.4,41.9,28.4z M41.9,35.7
		c-1.3,0-2.3-1-2.3-2.2c0-1.2,1-2.2,2.3-2.2s2.3,1,2.3,2.2C44.1,34.8,43.1,35.7,41.9,35.7z"/>
	<path class="st2" d="M67.7,33.6c0-16.6-14.1-30-31.5-30S4.7,17,4.7,33.6c0,8.7,0,30,0,30s23.2,0,31.5,0
		C53.6,63.5,67.7,50.1,67.7,33.6z"/>
</g>
</svg>
