<?xml version="1.0" encoding="utf-8"?>
<!-- Generator: Adobe Illustrator 24.0.3, SVG Export Plug-In . SVG Version: 6.00 Build 0)  -->
<svg version="1.1" id="Layer_1" xmlns="http://www.w3.org/2000/svg" xmlns:xlink="http://www.w3.org/1999/xlink" x="0px" y="0px"
	 viewBox="0 0 79 88" style="enable-background:new 0 0 79 88;" xml:space="preserve">
<style type="text/css">
	.st0{fill:#FDFEFF;}
</style>
<path class="st0" d="M74.5,71.4c-4.1,0-7.5-3.4-7.5-7.5V39.5c0-13-8.9-24.3-20.9-27.3c0.5-1,0.9-2.2,0.9-3.4c0-4.1-3.4-7.5-7.5-7.5
	S32,4.7,32,8.8c0,1.2,0.3,2.3,0.8,3.4c-4.4,1.1-8.5,3.2-11.8,6.3c-5.7,5.2-9,12.6-9,20.3v25.2c0,4.1-3.4,7.5-7.5,7.5
	c-1.4,0-2.5,1.1-2.5,2.5c0,1.4,1.1,2.5,2.5,2.5h28C32.2,77.1,32,78,32,78.9c0,4.1,3.4,7.5,7.5,7.5S47,83,47,78.9
	c0-0.9-0.2-1.7-0.5-2.5h28c1.4,0,2.5-1.1,2.5-2.5C77,72.5,75.9,71.4,74.5,71.4z M39.5,6.3c1.4,0,2.5,1.1,2.5,2.5s-1.1,2.5-2.5,2.5
	S37,10.2,37,8.8S38.1,6.3,39.5,6.3z M39.5,81.3c-1.4,0-2.5-1.1-2.5-2.5c0-1.4,1.1-2.5,2.5-2.5s2.5,1.1,2.5,2.5
	C42,80.2,40.9,81.3,39.5,81.3z M14.4,71.4c1.6-2.1,2.6-4.7,2.6-7.5V38.7c0-6.3,2.7-12.3,7.4-16.6c4.7-4.2,11-6.3,17.3-5.7
	C53.1,17.5,62,27.6,62,39.5v24.4c0,2.8,1,5.4,2.6,7.5H14.4z"/>
</svg>
