<?xml version="1.0" encoding="utf-8"?>
<!-- Generator: Adobe Illustrator 24.0.3, SVG Export Plug-In . SVG Version: 6.00 Build 0)  -->
<svg version="1.1" id="Layer_1" xmlns="http://www.w3.org/2000/svg" xmlns:xlink="http://www.w3.org/1999/xlink" x="0px" y="0px"
	 viewBox="0 0 98 98" style="enable-background:new 0 0 98 98;" xml:space="preserve">
<style type="text/css">
	.st0{fill:#D4E9FF;}
	.st1{fill:#0086FA;stroke:#0086FA;stroke-miterlimit:10;}
</style>
<g>
	<g>
		<circle class="st0" cx="49.4" cy="48.7" r="48"/>
	</g>
</g>
<g>
	<g>
		<path class="st1" d="M29.7,50.4c0-6.2,0-12.5,0-18.7c0-3.7,1.5-5.1,5.2-5.2c0.8,0,1.6-0.1,2.4,0c2.4,0.2,4.4-0.3,6.5-1.9
			c3.5-2.7,8.4-2.4,11.9,0.4c1.3,1.1,2.6,1.6,4.3,1.4c1.3-0.1,2.5,0,3.8,0c3.9,0,5.3,1.5,5.3,5.3c0,5.1,0,10.3,0,15.4
			c0,7.3,0,14.7,0,22c0,3.8-1.5,5.4-5.3,5.4c-9.6,0-19.3,0-28.9,0c-3.6,0-5.2-1.6-5.2-5.2C29.7,63,29.7,56.7,29.7,50.4z M40,28.2
			c-2,0-3.8-0.1-5.6,0c-1.8,0.1-2.9,1-2.9,3c0,1.8,0,3.6,0,5.5c0,10.9,0,21.8,0,32.7c0,1.9,0.5,3.4,2.7,3.4c10.1,0,20.2,0,30.4,0
			c1.8,0,2.7-1.1,2.7-2.9c0-1.5,0-3,0-4.5c0-11.2,0-22.5,0-33.7c0-1.8-0.5-3.2-2.4-3.4c-2-0.2-4,0-6.1,0c1.7,6.6,0.6,10.7-3.6,13.6
			c-3.5,2.4-8.3,2.3-11.8-0.1C39.3,38.8,38.3,34.7,40,28.2z M49.4,41.8c4.7,0,8.6-4,8.6-8.6c0-4.6-4-8.5-8.7-8.5
			c-4.7,0-8.7,3.9-8.6,8.6C40.8,37.9,44.7,41.8,49.4,41.8z"/>
		<g>
			<path class="st1" d="M62.5,48.6H44.9c-0.4,0-0.8,0.3-0.8,0.8s0.3,0.8,0.8,0.8h17.6c0.4,0,0.8-0.3,0.8-0.8S63,48.6,62.5,48.6z"/>
			<path class="st1" d="M62.5,55.1H44.9c-0.4,0-0.8,0.3-0.8,0.8c0,0.4,0.3,0.8,0.8,0.8h17.6c0.4,0,0.8-0.3,0.8-0.8
				C63.3,55.5,63,55.1,62.5,55.1z"/>
			<path class="st1" d="M62.5,61.7H44.9c-0.4,0-0.8,0.3-0.8,0.8c0,0.4,0.3,0.8,0.8,0.8h17.6c0.4,0,0.8-0.3,0.8-0.8
				C63.3,62,63,61.7,62.5,61.7z"/>
			<g>
				<g>
					<path class="st1" d="M40.8,48c-0.1-0.1-0.2-0.1-0.3,0l-3.2,3.2l-1.3-1.3c-0.1-0.1-0.2-0.1-0.3,0c-0.1,0.1-0.1,0.2,0,0.3
						l1.4,1.4c0.1,0.1,0.2,0.1,0.3,0l3.4-3.4C40.9,48.2,40.9,48.1,40.8,48z"/>
				</g>
			</g>
			<g>
				<g>
					<path class="st1" d="M40.8,54.1c-0.1-0.1-0.2-0.1-0.3,0l-3.2,3.2L36.1,56C36,56,35.9,56,35.8,56c-0.1,0.1-0.1,0.2,0,0.3
						l1.4,1.4c0.1,0.1,0.2,0.1,0.3,0l3.4-3.4C40.9,54.3,40.9,54.2,40.8,54.1z"/>
				</g>
			</g>
			<g>
				<g>
					<path class="st1" d="M40.8,60.6c-0.1-0.1-0.2-0.1-0.3,0l-3.2,3.2l-1.3-1.3c-0.1-0.1-0.2-0.1-0.3,0c-0.1,0.1-0.1,0.2,0,0.3
						l1.4,1.4c0.1,0.1,0.2,0.1,0.3,0l3.4-3.4C40.9,60.8,40.9,60.7,40.8,60.6z"/>
				</g>
			</g>
		</g>
		<g>
			<line class="st1" x1="46" y1="33" x2="52.7" y2="33"/>
			<line class="st1" x1="49.4" y1="29.6" x2="49.4" y2="36.4"/>
		</g>
	</g>
</g>
</svg>
