<?xml version="1.0" encoding="utf-8"?>
<!-- Generator: Adobe Illustrator 24.0.3, SVG Export Plug-In . SVG Version: 6.00 Build 0)  -->
<svg version="1.1" id="Layer_1" xmlns="http://www.w3.org/2000/svg" xmlns:xlink="http://www.w3.org/1999/xlink" x="0px" y="0px"
	 viewBox="0 0 65 73" style="enable-background:new 0 0 65 73;" xml:space="preserve">
<style type="text/css">
	.st0{fill:url(#SVGID_1_);}
	.st1{fill:url(#SVGID_2_);}
	.st2{fill:url(#SVGID_3_);}
</style>
<g>
	<linearGradient id="SVGID_1_" gradientUnits="userSpaceOnUse" x1="14.9882" y1="18.8357" x2="50.4167" y2="18.8357">
		<stop  offset="0" style="stop-color:#FFFFFF"/>
		<stop  offset="1" style="stop-color:#E9F6F6"/>
	</linearGradient>
	<path class="st0" d="M45.2,6.3c6.9,6.9,6.9,18.1,0,25.1s-18.1,6.9-25.1,0s-6.9-18.1,0-25.1C27.1-0.6,38.3-0.6,45.2,6.3"/>
	<linearGradient id="SVGID_2_" gradientUnits="userSpaceOnUse" x1="1.7022" y1="56.556" x2="63.7022" y2="56.556">
		<stop  offset="0" style="stop-color:#FFFFFF"/>
		<stop  offset="1" style="stop-color:#E9F6F6"/>
	</linearGradient>
	<path class="st1" d="M59.9,49.3c-16.1-10.9-38.2-10.9-54.3,0c-2.4,1.6-3.8,4.4-3.8,7.3V72h62V56.6C63.7,53.7,62.3,50.9,59.9,49.3
		L59.9,49.3z"/>
</g>
<g>
	<g>
		<linearGradient id="SVGID_3_" gradientUnits="userSpaceOnUse" x1="8.2253" y1="212.4085" x2="54.7253" y2="212.4085">
			<stop  offset="0" style="stop-color:#FFFFFF"/>
			<stop  offset="1" style="stop-color:#E9F6F6"/>
		</linearGradient>
		<path class="st2" d="M53.4,204.7h-3.9v-5.2c0-10-8.1-18.1-18.1-18.1s-18.1,8.1-18.1,18.1v5.2H9.5c-0.7,0-1.3,0.6-1.3,1.3v32.3
			c0,2.8,2.3,5.2,5.2,5.2h36.2c2.8,0,5.2-2.3,5.2-5.2V206C54.7,205.2,54.1,204.7,53.4,204.7z M35.3,231.6c0,0.4-0.1,0.7-0.3,1
			c-0.2,0.3-0.6,0.4-1,0.4h-5.2c-0.4,0-0.7-0.2-1-0.4c-0.2-0.3-0.4-0.6-0.3-1l0.8-7.3c-1.3-1-2.1-2.5-2.1-4.2c0-2.8,2.3-5.2,5.2-5.2
			s5.2,2.3,5.2,5.2c0,1.7-0.8,3.2-2.1,4.2L35.3,231.6z M41.8,204.7H21.1v-5.2c0-5.7,4.6-10.3,10.3-10.3s10.3,4.6,10.3,10.3V204.7z"
			/>
	</g>
</g>
</svg>
