<?xml version="1.0" encoding="utf-8"?>
<!-- Generator: Adobe Illustrator 24.0.3, SVG Export Plug-In . SVG Version: 6.00 Build 0)  -->
<svg version="1.1" id="Layer_1" xmlns="http://www.w3.org/2000/svg" xmlns:xlink="http://www.w3.org/1999/xlink" x="0px" y="0px"
	 viewBox="0 0 97 98" style="enable-background:new 0 0 97 98;" xml:space="preserve">
<style type="text/css">
	.st0{fill:#D4E9FF;}
	.st1{fill:none;stroke:#0086FA;}
</style>
<g>
	<g>
		<circle class="st0" cx="48.2" cy="49" r="48"/>
	</g>
	<g>
		<g>
			<g>
				<path class="st1" d="M69,71.1c0.5,0,0.8-0.4,0.8-0.8V24.2c0-1.1-0.9-2-2-2h-8c-0.1-1-1-1.8-2-1.8h-3.7c-0.5,0-0.8,0.4-0.8,0.8
					s0.4,0.8,0.8,0.8h3.7c0.2,0,0.3,0.2,0.3,0.3v5c0,0.2-0.2,0.3-0.3,0.3H40.5c-0.2,0-0.3-0.2-0.3-0.3v-5c0-0.2,0.2-0.3,0.3-0.3
					h13.4c0.5,0,0.8-0.4,0.8-0.8s-0.4-0.8-0.8-0.8H40.5c-1,0-1.9,0.8-2,1.8h-8c-1.1,0-2,0.9-2,2v30.1c-1.1,0.1-1.9,0.9-1.9,2v2.5
					c0,1.8,0.7,3.5,1.9,4.8v12.1c0,1.1,0.9,2,2,2h37.2c1.1,0,2-0.9,2-2v-5.8c0-0.5-0.4-0.8-0.8-0.8s-0.8,0.4-0.8,0.8v5.8
					c0,0.2-0.2,0.3-0.3,0.3H30.5c-0.2,0-0.3-0.2-0.3-0.3V64.8c1,0.6,2.1,0.9,3.4,0.9h25.3c0,0,0.1,0,0.1,0c1.8-0.1,3.5-0.8,4.7-2.1
					c1.3-1.3,2-3,2-4.9V27.7c0-1.1-0.9-2-2-2h-3.8v-1.8h7.9c0.2,0,0.3,0.2,0.3,0.3v46.1C68.1,70.7,68.5,71.1,69,71.1L69,71.1z
					 M33.6,64c-2.9,0-5.3-2.4-5.3-5.3v-2.5c0-0.2,0.2-0.3,0.3-0.3h23c0.2,0,0.3,0.2,0.3,0.3v2.5c0,2.1,0.9,4,2.4,5.3H33.6z M32.7,46
					v8.3h-2.5V24.2c0-0.2,0.2-0.3,0.3-0.3h7.9v1.8h-3.8c-1.1,0-2,0.9-2,2v19.2 M34.4,46.9V27.7c0-0.2,0.2-0.3,0.3-0.3h3.8v0.1
					c0,1.1,0.9,2,2,2h17.3c1.1,0,2-0.9,2-2v-0.1h3.8c0.2,0,0.3,0.2,0.3,0.3v31.1c0,2.8-2.3,5.2-5.1,5.3c0,0,0,0,0,0
					c-2.2,0-4-1.3-4.8-3.2h-0.3c0.5,0,0.8-0.4,0.8-0.8s-0.4-0.8-0.8-0.8h-0.1c0-0.1,0-0.3,0-0.4v-0.9h0.1c0.5,0,0.8-0.4,0.8-0.8
					s-0.4-0.8-0.8-0.8h-0.1c-0.1-1-0.9-1.9-2-1.9H34.4V46"/>
				<path class="st1" d="M40.4,47.2c1.4,0,2.6-1.2,2.6-2.6c0-1.4-1.2-2.6-2.6-2.6c-1.4,0-2.6,1.2-2.6,2.6S39,47.2,40.4,47.2
					L40.4,47.2z M40.4,43.7c0.5,0,0.9,0.4,0.9,0.9s-0.4,0.9-0.9,0.9c-0.5,0-0.9-0.4-0.9-0.9S39.9,43.7,40.4,43.7z"/>
				<path class="st1" d="M40.4,38.3c1.4,0,2.6-1.2,2.6-2.6s-1.2-2.6-2.6-2.6c-1.4,0-2.6,1.2-2.6,2.6C37.8,37.1,39,38.3,40.4,38.3
					L40.4,38.3z M40.4,34.8c0.5,0,0.9,0.4,0.9,0.9c0,0.5-0.4,0.9-0.9,0.9c-0.5,0-0.9-0.4-0.9-0.9C39.5,35.2,39.9,34.8,40.4,34.8
					L40.4,34.8z"/>
				<path class="st1" d="M42.5,24.1C42.5,24.1,42.5,24.1,42.5,24.1c-0.5,0-0.8,0.4-0.8,0.8c0,0.5,0.4,0.8,0.8,0.8h0h0
					c0.5,0,0.8-0.4,0.8-0.8C43.4,24.4,43,24.1,42.5,24.1L42.5,24.1z"/>
				<path class="st1" d="M55.8,25.7L55.8,25.7c0.5,0,0.8-0.4,0.8-0.8c0-0.5-0.4-0.8-0.8-0.8h0c0,0,0,0,0,0c-0.5,0-0.8,0.4-0.8,0.8
					C54.9,25.4,55.3,25.7,55.8,25.7L55.8,25.7z"/>
				<path class="st1" d="M60.9,34.9H46.4c-0.5,0-0.8,0.4-0.8,0.8s0.4,0.8,0.8,0.8h14.5c0.5,0,0.8-0.4,0.8-0.8S61.3,34.9,60.9,34.9z"
					/>
				<path class="st1" d="M60.9,43.8H46.4c-0.5,0-0.8,0.4-0.8,0.8s0.4,0.8,0.8,0.8h14.5c0.5,0,0.8-0.4,0.8-0.8S61.3,43.8,60.9,43.8z"
					/>
			</g>
		</g>
	</g>
</g>
</svg>
