<?xml version="1.0" encoding="utf-8"?>
<!-- Generator: Adobe Illustrator 24.0.3, SVG Export Plug-In . SVG Version: 6.00 Build 0)  -->
<svg version="1.1" id="Layer_1" xmlns="http://www.w3.org/2000/svg" xmlns:xlink="http://www.w3.org/1999/xlink" x="0px" y="0px"
	 viewBox="0 0 78.1 78.1" style="enable-background:new 0 0 78.1 78.1;" xml:space="preserve">
<style type="text/css">
	.st0{fill:#0051BF;}
</style>
<g>
	<g>
		<g>
			<path class="st0" d="M39.1,3c19.9,0,36,16.1,36,36s-16.1,36-36,36s-36-16.1-36-36S19.2,3,39.1,3 M39.1,0c-21.5,0-39,17.5-39,39
				s17.5,39,39,39s39-17.5,39-39S60.6,0,39.1,0L39.1,0z"/>
		</g>
	</g>
	<g>
		<g>
			<g>
				<path class="st0" d="M55.3,36.6H41.5V22.7c0-1.3-1.1-2.4-2.4-2.4s-2.4,1.1-2.4,2.4v13.9H22.8c-1.3,0-2.4,1.1-2.4,2.4
					c0,1.3,1.1,2.4,2.4,2.4h13.9v13.9c0,1.3,1.1,2.4,2.4,2.4s2.4-1.1,2.4-2.4V41.4h13.9c1.3,0,2.4-1.1,2.4-2.4
					C57.7,37.7,56.7,36.6,55.3,36.6z"/>
			</g>
		</g>
	</g>
</g>
</svg>
