<?xml version="1.0" encoding="utf-8"?>
<!-- Generator: Adobe Illustrator 24.0.3, SVG Export Plug-In . SVG Version: 6.00 Build 0)  -->
<svg version="1.1" id="Layer_1" xmlns="http://www.w3.org/2000/svg" xmlns:xlink="http://www.w3.org/1999/xlink" x="0px" y="0px"
	 viewBox="0 0 115.2 115.2" style="enable-background:new 0 0 115.2 115.2;" xml:space="preserve">
<style type="text/css">
	.st0{fill:#0051BF;}
	.st1{fill:#75AA0E;}
	.st2{fill:#0086FA;}
	.st3{fill:none;stroke:#0051BF;stroke-width:2;stroke-miterlimit:10;}
</style>
<g id="_x37_qNxqH.tif_3_">
	<g>
		<path class="st0" d="M92.6,45c-0.1,0.3-0.2,0.7-0.2,1c-0.9,3.9-4,6.6-7.9,7.1c-0.2,0-0.4,0.1-0.6,0.1c0,0.2,0,0.5,0,0.7
			c0,4.5,0,9,0,13.5c0,6.4-5.1,11.5-11.5,11.5c-2,0-4.1,0.1-6.1-0.2c-4.8-0.5-9.1-4.7-9.6-9.6c-0.2-2.3-0.2-4.5-0.2-6.8
			c0-2.8,0-5.7,0-8.5c0-0.2,0-0.4,0-0.7c-0.4,0-0.8,0-1.2,0c-6.8,0-13.5,0-20.3,0c-1.7,0-2.6-0.9-2.6-2.6c0-4.2,0-8.4,0-12.7
			c-0.2,0-0.4,0-0.5,0c-1.4,0-2.9,0-4.3,0c-2.2,0-3.9,1.7-3.9,3.9c0,10,0,20,0,29.9c0,2.1,1.7,3.8,3.8,3.9c1.3,0,2.6,0,4,0
			c2.2-0.1,3.8-1.8,3.8-4c0-3.2,0-6.4,0-9.6c0-2.5,1.5-4.5,3.8-5c0.4-0.1,0.9-0.1,1.3-0.2c1.2,0,2.3,0,3.5,0c3,0.1,5,2.2,5,5.1
			c0,3.8,0,7.6,0,11.3c0,0.5,0.1,0.8,0.6,0.9c1.2,0.4,2,1.3,2.5,2.3c1.7,3.4,1.7,6.8,0,10.2c-0.6,1.1-1.5,2-2.8,2.4
			c-0.2,0.1-0.3,0.3-0.3,0.5c0,0.7,0,1.3,0,2c0,0.3-0.2,0.6-0.3,0.9c-0.2,0-0.4,0-0.5,0c-0.1-0.3-0.2-0.6-0.3-0.9c0-0.3-0.1-0.7,0-1
			c0.1-0.9-0.1-1.5-1.1-1.9c-1.1-0.4-1.8-1.5-2.3-2.6c-1.3-3-1.4-6.1,0-9.1c0.6-1.4,1.6-2.6,3.1-3.1c0.2-0.1,0.3-0.4,0.3-0.6
			c0-3.3,0-6.7,0-10c0-0.5,0-1,0-1.6c0-2.2-1.5-3.9-3.8-4c-1.3-0.1-2.6-0.1-3.9,0c-2.2,0.1-3.7,1.7-3.8,4c0,3.1,0,6.2,0,9.3
			c0,3.4-2.1,5.5-5.4,5.4c-1.4,0-2.8,0.1-4.2-0.1c-2.3-0.3-4.1-2.4-4.1-4.7c0-10.1,0-20.1,0-30.2c0-2.6,2.2-4.8,4.8-4.9
			c1.6,0,3.3,0,5,0c0-0.3,0-0.5,0-0.8c0-3.6,0-7.2,0-10.9c0-1.7,0.8-2.6,2.5-2.6c10.2,0,20.3,0,30.5,0c1.7,0,2.5,0.9,2.5,2.5
			c0,8.5,0,17.1,0,25.6c0,1.6-0.9,2.5-2.5,2.5c-2.6,0-5.2,0-7.9,0c0,0.3,0,0.5,0,0.8c0,4.4,0,8.8,0,13.3c0,6.1,4.6,10.6,10.7,10.6
			c1.9,0,3.8,0.1,5.7-0.2c4.8-0.6,8.6-4.7,8.8-9.5c0.2-4.9,0-9.9,0.1-14.8c0,0,0-0.1,0,0c-1.1-0.3-2.2-0.5-3.2-1
			c-3.7-1.6-6-5.7-5.4-9.5c0.6-4.4,3.7-7.6,7.9-8.2c5.1-0.7,9.7,2.7,10.5,7.8c0,0.1,0.1,0.2,0.1,0.3C92.6,43.5,92.6,44.3,92.6,45z
			 M50.2,23.7c-5.1,0-10.2,0-15.2,0c-1.1,0-1.4,0.4-1.4,1.4c0,8.5,0,17,0,25.6c0,1.1,0.4,1.4,1.4,1.4c10.2,0,20.4,0,30.5,0
			c1,0,1.4-0.4,1.4-1.4c0-8.5,0-17,0-25.6c0-1.1-0.3-1.5-1.5-1.5C60.4,23.7,55.3,23.7,50.2,23.7z M91.5,43.9c0-4.5-3.7-8.2-8.1-8.2
			c-4.5,0-8.2,3.6-8.3,8.2c0,4.5,3.7,8.2,8.2,8.2C87.8,52.1,91.5,48.4,91.5,43.9z M52.3,81.7c-0.1,0-0.1,0-0.2-0.1
			c0-1.6-0.3-3.2-1.1-4.6c-0.6-1.1-1.4-2-2.7-2c-1.3,0-2.1,0.9-2.7,2c-1,1.8-1.3,3.7-1.1,5.7c0.2,1.5,0.6,3,1.6,4.2
			c1.3,1.6,3.1,1.6,4.4,0c0.3-0.4,0.7-0.9,0.8-1.4C51.7,84.3,52,83,52.3,81.7z"/>
		<path class="st1" d="M60.3,61.7c0-1.8,0-3.6,0-5.5c0-0.4,0-0.9,0.6-0.9c0.5,0,0.5,0.5,0.5,0.9c0,3.4,0,6.8,0,10.2
			c0,4.2,2.7,7.1,6.9,7.5c0.3,0,0.7,0.3,0.7,0.5c0.1,0.5-0.3,0.5-0.7,0.5c-4.1,0-7.8-3.6-7.9-7.9C60.3,65.4,60.3,63.6,60.3,61.7
			C60.3,61.7,60.3,61.7,60.3,61.7z"/>
		<path class="st1" d="M45.6,66.3c0,1.2,0,2.3,0,3.5c0,0.4,0,0.8-0.5,0.9c-0.6,0-0.6-0.5-0.6-0.9c0-2.1,0-4.3,0-6.4
			c0-0.3,0-0.6,0-0.9c-0.2-1.3-0.7-1.7-1.9-1.6c-0.4,0-0.8,0.1-1.2,0c-0.2-0.1-0.4-0.3-0.7-0.5c0.2-0.2,0.4-0.5,0.6-0.5
			c0.7-0.1,1.3-0.1,2,0c0.8,0.1,1.5,0.5,1.8,1.3c0.3,0.6,0.4,1.3,0.5,2C45.6,64.1,45.6,65.2,45.6,66.3z"/>
		<path class="st1" d="M45,71.5c0.3,0.4,0.5,0.6,0.5,0.8c0,0.2-0.3,0.4-0.5,0.5c-0.2-0.2-0.5-0.3-0.5-0.6
			C44.5,72.2,44.8,71.9,45,71.5z"/>
		<path class="st1" d="M71.3,75.3c-0.3-0.4-0.5-0.6-0.5-0.8c0-0.2,0.3-0.4,0.5-0.5c0.2,0.2,0.5,0.3,0.5,0.6
			C71.8,74.7,71.5,74.9,71.3,75.3z"/>
		<path class="st1" d="M27.5,55.4c0,3.8,0,7.7,0,11.5c0,0.2,0.1,0.4,0,0.6c-0.1,0.2-0.3,0.5-0.5,0.4c-0.2,0-0.4-0.3-0.6-0.5
			c-0.1-0.1,0-0.3,0-0.5c0-7.7,0-15.4,0-23.2c0-2.3,1.6-3.4,3.9-3.2c0.2,0,0.5,0.3,0.5,0.5c0,0.2-0.3,0.4-0.5,0.5
			c-0.2,0.1-0.5,0-0.8,0c-1.3,0.1-1.9,0.7-1.9,2C27.5,47.6,27.5,51.5,27.5,55.4C27.5,55.4,27.5,55.4,27.5,55.4z"/>
		<path class="st1" d="M27,70.4c-0.3-0.4-0.5-0.6-0.5-0.8c0-0.2,0.3-0.4,0.5-0.5c0.2,0.2,0.5,0.3,0.5,0.6C27.5,69.8,27.2,70,27,70.4
			z"/>
		<path class="st1" d="M37.4,37.9c0-1.9,0-3.8,0-5.7c0-0.3,0.2-0.6,0.4-0.8c0.4-0.2,0.7,0.2,0.7,0.8c0,2.5,0,5.1,0,7.6
			c0,1.3,0,2.6,0,3.9c0,0.4,0,0.8-0.6,0.8c-0.5,0-0.5-0.4-0.5-0.8C37.4,41.7,37.4,39.8,37.4,37.9z"/>
		<path class="st1" d="M42.3,37.8c0-1.9,0-3.7,0-5.6c0-0.4,0-0.9,0.5-0.9c0.6,0,0.6,0.4,0.6,0.9c0,3.8,0,7.6,0,11.3
			c0,0.4,0,0.9-0.5,0.9c-0.6,0-0.6-0.4-0.6-0.9C42.3,41.6,42.3,39.7,42.3,37.8z"/>
		<path class="st1" d="M47.2,37.8c0-1.9,0-3.7,0-5.6c0-0.4,0-0.9,0.5-0.9c0.6,0,0.6,0.4,0.6,0.9c0,3.8,0,7.6,0,11.3
			c0,0.4,0,0.9-0.6,0.9c-0.5,0-0.5-0.4-0.5-0.8C47.2,41.7,47.2,39.7,47.2,37.8z"/>
		<path class="st1" d="M52.1,37.8c0-1.9,0-3.7,0-5.6c0-0.4,0-0.9,0.5-0.9c0.6,0,0.6,0.4,0.6,0.9c0,3.8,0,7.6,0,11.3
			c0,0.4,0,0.9-0.5,0.9c-0.6,0-0.6-0.4-0.6-0.9C52.1,41.6,52.1,39.7,52.1,37.8z"/>
		<path class="st1" d="M57.1,37.9c0-1.9,0-3.7,0-5.6c0-0.1,0-0.2,0-0.3c0-0.4,0.2-0.7,0.6-0.7c0.2,0,0.5,0.4,0.5,0.6
			c0,3.9,0,7.8,0,11.7c0,0.4-0.2,0.7-0.6,0.7c-0.2-0.1-0.5-0.5-0.5-0.7C57,41.8,57.1,39.8,57.1,37.9z"/>
		<path class="st1" d="M63.1,37.9c0,1.9,0,3.8,0,5.7c0,0.4,0,0.8-0.5,0.9C62,44.4,62,44,62,43.6c0-3.8,0-7.6,0-11.4
			c0-0.4,0-0.8,0.5-0.9c0.5,0,0.6,0.4,0.6,0.8C63.1,34.1,63.1,36,63.1,37.9z"/>
		<path class="st1" d="M77.8,43.9c0-2.7,1.7-4.9,4.2-5.4c0.2,0,0.4-0.1,0.5-0.1c0.4,0,0.7,0.1,0.7,0.5c0,0.4-0.3,0.5-0.7,0.6
			c-2,0.2-3.5,1.9-3.7,4c-0.1,2.3,1.2,4.2,3.2,4.7c0.2,0,0.5,0,0.7,0.1c0.2,0.1,0.4,0.3,0.5,0.5c-0.2,0.2-0.4,0.5-0.6,0.5
			c-0.7-0.1-1.4-0.2-2-0.5C78.9,48,77.8,46,77.8,43.9z"/>
		<path class="st2" d="M83.5,45c-0.7,0-1.2-0.4-1.2-0.9c-0.1-0.6,0.2-1,0.8-1.2c0.3-0.1,0.6-0.3,0.8-0.6c0.7-0.9,1.4-1.9,2.1-2.8
			c0.2-0.3,0.5-0.7,0.9-0.3c0.4,0.3,0.2,0.6-0.1,1c-0.6,0.8-1.2,1.6-1.8,2.3c-0.4,0.5-0.8,0.9-0.8,1.7C84.4,44.6,83.9,44.9,83.5,45z
			"/>
		<path class="st2" d="M45.5,82.1c0.2-0.8,0.4-1.5,0.6-2.2c0.1-0.2,0.5-0.3,0.7-0.4c0.1,0.3,0.3,0.6,0.3,0.8
			c-0.5,1.3-0.4,2.5,0.1,3.8c0.1,0.2-0.2,0.5-0.2,0.8c-0.2-0.1-0.6-0.2-0.7-0.4C45.9,83.7,45.7,82.9,45.5,82.1z"/>
		<path class="st2" d="M47.2,77.6c0.3,0.4,0.5,0.6,0.5,0.8c0,0.2-0.4,0.5-0.5,0.5c-0.2-0.1-0.5-0.3-0.5-0.5
			C46.7,78.2,47,77.9,47.2,77.6z"/>
	</g>
</g>
<circle class="st3" cx="57.6" cy="57.6" r="56.5"/>
</svg>
