<?xml version="1.0" encoding="utf-8"?>
<!-- Generator: Adobe Illustrator 24.0.3, SVG Export Plug-In . SVG Version: 6.00 Build 0)  -->
<svg version="1.1" id="Layer_1" xmlns="http://www.w3.org/2000/svg" xmlns:xlink="http://www.w3.org/1999/xlink" x="0px" y="0px"
	 viewBox="0 0 116.4 116.3" style="enable-background:new 0 0 116.4 116.3;" xml:space="preserve">
<style type="text/css">
	.st0{fill:none;stroke:#0051BF;stroke-width:3;stroke-miterlimit:10;}
	.st1{fill:#0051BF;stroke:#0051BF;stroke-width:2;stroke-miterlimit:10;}
	.st2{fill:#75AA0E;stroke:#75AA0E;stroke-width:2;stroke-miterlimit:10;}
</style>
<g>
	<circle class="st0" cx="58.3" cy="58.2" r="56.5"/>
	<g>
		<path class="st1" d="M94.3,46.6c-0.1,0.3-0.2,0.7-0.2,1c-0.9,3.9-4,6.6-7.9,7.1c-0.2,0-0.4,0.1-0.6,0.1c0,0.2,0,0.5,0,0.7
			c0,4.5,0,9,0,13.5c0,6.4-5.1,11.5-11.5,11.5c-2,0-4.1,0.1-6.1-0.2c-4.8-0.5-9.1-4.7-9.6-9.6c-0.2-2.3-0.2-4.5-0.2-6.8
			c0-2.8,0-5.7,0-8.5c0-0.2,0-0.4,0-0.7c-0.4,0-0.8,0-1.2,0c-6.8,0-13.5,0-20.3,0c-1.7,0-2.6-0.9-2.6-2.6c0-4.2,0-8.4,0-12.7
			c-0.2,0-0.4,0-0.5,0c-1.4,0-2.9,0-4.3,0c-2.2,0-3.9,1.7-3.9,3.9c0,10,0,20,0,29.9c0,2.1,1.7,3.8,3.8,3.9c1.3,0,2.6,0,4,0
			c2.2-0.1,3.8-1.8,3.8-4c0-3.2,0-6.4,0-9.6c0-2.5,1.5-4.5,3.8-5c0.4-0.1,0.9-0.1,1.3-0.2c1.2,0,2.3,0,3.5,0c3,0.1,5,2.2,5,5.1
			c0,3.8,0,7.6,0,11.3c0,0.5,0.1,0.8,0.6,0.9c1.2,0.4,2,1.3,2.5,2.3c1.7,3.4,1.7,6.8,0,10.2c-0.6,1.1-1.5,2-2.8,2.4
			c-0.2,0.1-0.3,0.3-0.3,0.5c0,0.7,0,1.3,0,2c0,0.3-0.2,0.6-0.3,0.9c-0.2,0-0.4,0-0.5,0c-0.1-0.3-0.2-0.6-0.3-0.9c0-0.3-0.1-0.7,0-1
			c0.1-0.9-0.1-1.5-1.1-1.9C47.2,90,46.5,89,46,87.9c-1.3-3-1.4-6.1,0-9.1c0.6-1.4,1.6-2.6,3.1-3.1c0.2-0.1,0.3-0.4,0.3-0.6
			c0-3.3,0-6.7,0-10c0-0.5,0-1,0-1.6c0-2.2-1.5-3.9-3.8-4c-1.3-0.1-2.6-0.1-3.9,0c-2.2,0.1-3.7,1.7-3.8,4c0,3.1,0,6.2,0,9.3
			c0,3.4-2.1,5.5-5.4,5.4c-1.4,0-2.8,0.1-4.2-0.1c-2.3-0.3-4.1-2.4-4.1-4.7c0-10.1,0-20.1,0-30.2c0-2.6,2.2-4.8,4.8-4.9
			c1.6,0,3.3,0,5,0c0-0.3,0-0.5,0-0.8c0-3.6,0-7.2,0-10.9c0-1.7,0.8-2.6,2.5-2.6c10.2,0,20.3,0,30.5,0c1.7,0,2.5,0.9,2.5,2.5
			c0,8.5,0,17.1,0,25.6c0,1.6-0.9,2.5-2.5,2.5c-2.6,0-5.2,0-7.9,0c0,0.3,0,0.5,0,0.8c0,4.4,0,8.8,0,13.3c0,6.1,4.6,10.6,10.7,10.6
			c1.9,0,3.8,0.1,5.7-0.2c4.8-0.6,8.6-4.7,8.8-9.5c0.2-4.9,0-9.9,0.1-14.8c0,0,0-0.1,0,0c-1.1-0.3-2.2-0.5-3.2-1
			c-3.7-1.6-6-5.7-5.4-9.5c0.6-4.4,3.7-7.6,7.9-8.2c5.1-0.7,9.7,2.7,10.5,7.8c0,0.1,0.1,0.2,0.1,0.3C94.3,45.2,94.3,45.9,94.3,46.6z
			 M51.9,25.3c-5.1,0-10.2,0-15.2,0c-1.1,0-1.4,0.4-1.4,1.4c0,8.5,0,17,0,25.6c0,1.1,0.4,1.4,1.4,1.4c10.2,0,20.4,0,30.5,0
			c1,0,1.4-0.4,1.4-1.4c0-8.5,0-17,0-25.6c0-1.1-0.3-1.5-1.5-1.5C62,25.3,56.9,25.3,51.9,25.3z M93.2,45.6c0-4.5-3.7-8.2-8.1-8.2
			c-4.5,0-8.2,3.6-8.3,8.2c0,4.5,3.7,8.2,8.2,8.2C89.5,53.7,93.1,50.1,93.2,45.6z M54,83.4c-0.1,0-0.1,0-0.2-0.1
			c0-1.6-0.3-3.2-1.1-4.6c-0.6-1.1-1.4-2-2.7-2c-1.3,0-2.1,0.9-2.7,2c-1,1.8-1.3,3.7-1.1,5.7c0.2,1.5,0.6,3,1.6,4.2
			c1.3,1.6,3.1,1.6,4.4,0c0.3-0.4,0.7-0.9,0.8-1.4C53.4,85.9,53.6,84.6,54,83.4z"/>
		<path class="st1" d="M62,63.4c0-1.8,0-3.6,0-5.5c0-0.4,0-0.9,0.6-0.9c0.5,0,0.5,0.5,0.5,0.9c0,3.4,0,6.8,0,10.2
			c0,4.2,2.7,7.1,6.9,7.5c0.3,0,0.7,0.3,0.7,0.5c0.1,0.5-0.3,0.5-0.7,0.5c-4.1,0-7.8-3.6-7.9-7.9C61.9,67,62,65.2,62,63.4
			C62,63.4,62,63.4,62,63.4z"/>
		<path class="st1" d="M47.2,68c0,1.2,0,2.3,0,3.5c0,0.4,0,0.8-0.5,0.9c-0.6,0-0.6-0.5-0.6-0.9c0-2.1,0-4.3,0-6.4c0-0.3,0-0.6,0-0.9
			c-0.2-1.3-0.7-1.7-1.9-1.6c-0.4,0-0.8,0.1-1.2,0c-0.2-0.1-0.4-0.3-0.7-0.5c0.2-0.2,0.4-0.5,0.6-0.5c0.7-0.1,1.3-0.1,2,0
			c0.8,0.1,1.5,0.5,1.8,1.3c0.3,0.6,0.4,1.3,0.5,2C47.3,65.7,47.2,66.9,47.2,68z"/>
		<path class="st1" d="M46.7,73.2c0.3,0.4,0.5,0.6,0.5,0.8c0,0.2-0.3,0.4-0.5,0.5c-0.2-0.2-0.5-0.3-0.5-0.6
			C46.1,73.8,46.4,73.6,46.7,73.2z"/>
		<path class="st1" d="M72.9,77c-0.3-0.4-0.5-0.6-0.5-0.8c0-0.2,0.3-0.4,0.5-0.5c0.2,0.2,0.5,0.3,0.5,0.6
			C73.5,76.4,73.2,76.6,72.9,77z"/>
		<path class="st1" d="M29.2,57c0,3.8,0,7.7,0,11.5c0,0.2,0.1,0.4,0,0.6c-0.1,0.2-0.3,0.5-0.5,0.4c-0.2,0-0.4-0.3-0.6-0.5
			c-0.1-0.1,0-0.3,0-0.5c0-7.7,0-15.4,0-23.2c0-2.3,1.6-3.4,3.9-3.2c0.2,0,0.5,0.3,0.5,0.5c0,0.2-0.3,0.4-0.5,0.5
			c-0.2,0.1-0.5,0-0.8,0c-1.3,0.1-1.9,0.7-1.9,2C29.2,49.3,29.2,53.2,29.2,57C29.2,57,29.2,57,29.2,57z"/>
		<path class="st1" d="M28.6,72c-0.3-0.4-0.5-0.6-0.5-0.8c0-0.2,0.3-0.4,0.5-0.5c0.2,0.2,0.5,0.3,0.5,0.6
			C29.2,71.4,28.9,71.7,28.6,72z"/>
		<path class="st2" d="M39,39.5c0-1.9,0-3.8,0-5.7c0-0.3,0.2-0.6,0.4-0.8c0.4-0.2,0.7,0.2,0.7,0.8c0,2.5,0,5.1,0,7.6
			c0,1.3,0,2.6,0,3.9c0,0.4,0,0.8-0.6,0.8c-0.5,0-0.5-0.4-0.5-0.8C39,43.4,39,41.4,39,39.5z"/>
		<path class="st2" d="M43.9,39.5c0-1.9,0-3.7,0-5.6c0-0.4,0-0.9,0.5-0.9c0.6,0,0.6,0.4,0.6,0.9c0,3.8,0,7.6,0,11.3
			c0,0.4,0,0.9-0.5,0.9c-0.6,0-0.6-0.4-0.6-0.9C43.9,43.3,43.9,41.4,43.9,39.5z"/>
		<path class="st2" d="M48.9,39.5c0-1.9,0-3.7,0-5.6c0-0.4,0-0.9,0.5-0.9c0.6,0,0.6,0.4,0.6,0.9c0,3.8,0,7.6,0,11.3
			c0,0.4,0,0.9-0.6,0.9c-0.5,0-0.5-0.4-0.5-0.8C48.9,43.3,48.9,41.4,48.9,39.5z"/>
		<path class="st2" d="M53.8,39.5c0-1.9,0-3.7,0-5.6c0-0.4,0-0.9,0.5-0.9c0.6,0,0.6,0.4,0.6,0.9c0,3.8,0,7.6,0,11.3
			c0,0.4,0,0.9-0.5,0.9c-0.6,0-0.6-0.4-0.6-0.9C53.8,43.3,53.8,41.4,53.8,39.5z"/>
		<path class="st2" d="M58.7,39.5c0-1.9,0-3.7,0-5.6c0-0.1,0-0.2,0-0.3c0-0.4,0.2-0.7,0.6-0.7c0.2,0,0.5,0.4,0.5,0.6
			c0,3.9,0,7.8,0,11.7c0,0.4-0.2,0.7-0.6,0.7c-0.2-0.1-0.5-0.5-0.5-0.7C58.7,43.4,58.7,41.5,58.7,39.5z"/>
		<path class="st2" d="M64.7,39.5c0,1.9,0,3.8,0,5.7c0,0.4,0,0.8-0.5,0.9c-0.5,0-0.6-0.4-0.6-0.8c0-3.8,0-7.6,0-11.4
			c0-0.4,0-0.8,0.5-0.9c0.5,0,0.6,0.4,0.6,0.8C64.7,35.7,64.7,37.6,64.7,39.5z"/>
		<path class="st1" d="M79.5,45.6c0-2.7,1.7-4.9,4.2-5.4c0.2,0,0.4-0.1,0.5-0.1c0.4,0,0.7,0.1,0.7,0.5c0,0.4-0.3,0.5-0.7,0.6
			c-2,0.2-3.5,1.9-3.7,4c-0.1,2.3,1.2,4.2,3.2,4.7c0.2,0,0.5,0,0.7,0.1c0.2,0.1,0.4,0.3,0.5,0.5c-0.2,0.2-0.4,0.5-0.6,0.5
			c-0.7-0.1-1.4-0.2-2-0.5C80.6,49.6,79.5,47.7,79.5,45.6z"/>
		<path class="st1" d="M85.1,46.6c-0.7,0-1.2-0.4-1.2-0.9c-0.1-0.6,0.2-1,0.8-1.2c0.3-0.1,0.6-0.3,0.8-0.6c0.7-0.9,1.4-1.9,2.1-2.8
			c0.2-0.3,0.5-0.7,0.9-0.3c0.4,0.3,0.2,0.6-0.1,1c-0.6,0.8-1.2,1.6-1.8,2.3C86.4,44.6,86,45,86,45.7C86,46.3,85.5,46.6,85.1,46.6z"
			/>
		<path class="st1" d="M47.1,83.8c0.2-0.8,0.4-1.5,0.6-2.2c0.1-0.2,0.5-0.3,0.7-0.4c0.1,0.3,0.3,0.6,0.3,0.8
			c-0.5,1.3-0.4,2.5,0.1,3.8c0.1,0.2-0.2,0.5-0.2,0.8c-0.2-0.1-0.6-0.2-0.7-0.4C47.5,85.3,47.3,84.6,47.1,83.8z"/>
		<path class="st1" d="M48.9,79.2c0.3,0.4,0.5,0.6,0.5,0.8c0,0.2-0.4,0.5-0.5,0.5c-0.2-0.1-0.5-0.3-0.5-0.5
			C48.3,79.8,48.6,79.6,48.9,79.2z"/>
	</g>
</g>
</svg>
