<?xml version="1.0" encoding="utf-8"?>
<!-- Generator: Adobe Illustrator 24.0.3, SVG Export Plug-In . SVG Version: 6.00 Build 0)  -->
<svg version="1.1" id="Layer_1" xmlns="http://www.w3.org/2000/svg" xmlns:xlink="http://www.w3.org/1999/xlink" x="0px" y="0px"
	 viewBox="0 0 116.4 116.3" style="enable-background:new 0 0 116.4 116.3;" xml:space="preserve">
<style type="text/css">
	.st0{fill:none;stroke:#0051BF;stroke-width:3;stroke-miterlimit:10;}
	.st1{fill:#0051BF;stroke:#0051BF;stroke-width:2;stroke-miterlimit:10;}
	.st2{fill:none;stroke:#75AA0E;stroke-width:2;stroke-miterlimit:10;}
</style>
<g>
	<circle class="st0" cx="58.3" cy="58.2" r="56.5"/>
	<g>
		<path class="st1" d="M58.1,37.8c1.6-1.4,3.1-2.8,4.7-4c9.9-6.7,23.6-1.4,26.4,10.2c1.5,6.2,0,11.8-4.5,16.4
			c-7.9,8-15.8,15.9-23.8,23.8c-1.9,1.9-3.5,1.8-5.4-0.1C47.7,76.3,39.9,68.5,32,60.7c-8.4-8.4-6.5-22.2,4-27.9
			c6.5-3.5,15-2.3,20.2,3C56.9,36.5,57.5,37.1,58.1,37.8z M56.7,39.4c-0.1-0.2-0.1-0.3-0.2-0.3c-0.5-0.5-1.1-1.1-1.6-1.6
			c-4.1-3.9-8.9-5.3-14.4-4.1c-9.6,2.2-14.6,13.2-9.9,22c0.2,0.5,0.5,0.6,1,0.6c2.8,0,5.7,0,8.5,0c0.3,0,0.8-0.3,1-0.6
			c0.5-0.9,0.9-2,1.5-2.9c0.2-0.3,0.6-0.6,1-0.6c0.3,0,0.7,0.4,1,0.6c0.2,0.2,0.2,0.5,0.3,0.7c0.5,1.4,1.1,2.9,1.7,4.5
			c0.1-0.3,0.2-0.5,0.2-0.6c1-3.8,2-7.7,3.1-11.5c0.2-0.6,0.5-1.1,1.2-1c0.7,0,0.9,0.5,1,1.2c0.6,4.6,1.2,9.3,1.9,13.9
			c0.1,1.1,0.3,2.1,0.5,3.2c1-3.3,1.9-6.6,2.8-9.9c0.1-0.4,0.7-1,1.1-1.1c0.3-0.1,0.9,0.5,1.1,1c0.5,1,0.8,2.1,1.2,3.1
			c0.3,0.8,0.6,1.7,1,2.6c0.3-0.5,0.5-0.8,0.6-1.2c0.4-1.2,1.2-1.4,2.4-1.4c3.3,0.1,6.6,0,10,0c0.4,0,0.9-0.2,1.2-0.4
			c0.9-0.8,2.2-0.8,3,0.1c0.7,0.8,0.7,2.1,0,2.9c-0.8,0.8-2.1,0.8-3,0c-0.3-0.2-0.6-0.4-1-0.4c-3.3,0-6.6,0-9.9,0
			c-0.3,0-0.7,0.3-0.9,0.6c-0.5,0.9-0.9,2-1.5,2.9c-0.2,0.3-0.7,0.7-1,0.7c-0.3,0-0.8-0.4-1-0.8c-0.4-0.7-0.6-1.4-0.8-2.1
			c-0.4-0.9-0.7-1.9-1.2-3c-1.1,4.2-2.2,8.1-3.2,12c-0.2,0.7-0.4,1.3-1.2,1.2c-0.9,0-1-0.7-1.1-1.3c-0.6-4.5-1.2-9-1.8-13.4
			c-0.2-1.2-0.3-2.3-0.5-3.5c-1,3.1-1.8,6.2-2.6,9.2c-0.2,0.7-0.2,1.6-1.2,1.7c-1,0-1.1-0.9-1.4-1.6c-0.6-1.7-1.3-3.4-1.9-5
			c-0.1-0.1-0.2-0.1-0.2-0.2c-0.3,2.7-2.1,2.9-4.1,2.6c-0.1,0-0.2,0-0.3,0c-2.1,0-4.1,0-6.4,0c0.5,0.5,0.8,0.9,1.1,1.2
			c7.8,7.8,15.6,15.6,23.4,23.4c0.2,0.2,0.3,0.4,0.5,0.4c0.5,0.1,1,0.1,1.4,0c0.3-0.1,0.6-0.5,0.8-0.8c7.7-7.7,15.4-15.4,23.1-23.1
			c4-4,5.6-8.7,4.5-14.2c-1.2-5.8-4.8-9.8-10.6-11.5c-5.6-1.7-10.7-0.4-15,3.7c-1.9,1.8-3.8,3.7-5.6,5.6c-0.5,0.5-1.1,0.7-1.7,0.1
			c-0.5-0.5-0.3-1.1,0.2-1.6C55.3,40.8,56,40.1,56.7,39.4z"/>
		<path class="st1" d="M73.4,64.6c0.3-0.2,0.7-0.4,0.8-0.7c0.1-0.3,0.1-0.8-0.1-1c-0.5-0.6-1-1.1-1.6-1.6c-0.5-0.4-1-0.4-1.4,0
			c-0.5,0.5-0.4,1,0,1.4c0.5,0.5,1,1,1.5,1.5C72.7,64.3,73,64.4,73.4,64.6z M62.2,75.7c0.3-0.2,0.7-0.4,0.8-0.7
			c0.1-0.3,0.1-0.9-0.1-1.1c-0.5-0.6-1-1.2-1.6-1.6c-0.3-0.2-1-0.2-1.3,0c-0.5,0.3-0.5,0.9-0.1,1.4c0.5,0.5,1,1.1,1.5,1.5
			C61.6,75.5,61.9,75.5,62.2,75.7z M67,65.6c0.1,0.3,0.2,0.6,0.3,0.7c0.5,0.6,1.1,1.2,1.7,1.6c0.3,0.2,1,0.2,1.2-0.1
			c0.3-0.3,0.4-1,0.2-1.3c-0.4-0.7-1.1-1.2-1.7-1.7c-0.2-0.2-0.7-0.2-1-0.1C67.4,64.9,67.2,65.3,67,65.6z M56,76.8
			c0,0.7,1.8,2.5,2.5,2.5c0.8,0,1.4-0.9,0.9-1.5c-0.6-0.7-1.3-1.4-2-2C56.8,75.4,56,76,56,76.8z M66.9,70.8c0-0.1,0-0.2-0.1-0.3
			c-0.7-0.7-1.4-1.5-2.2-2.1c-0.2-0.1-0.9,0.1-1,0.3c-0.2,0.3-0.3,0.9-0.1,1.2c0.5,0.7,1.1,1.3,1.8,1.8C66,72.2,66.9,71.7,66.9,70.8
			z"/>
		<path class="st2" d="M73.4,64.6c-0.4-0.2-0.7-0.2-0.9-0.4c-0.5-0.5-1-1-1.5-1.5c-0.4-0.5-0.4-1,0-1.4c0.5-0.5,1-0.4,1.4,0
			c0.6,0.5,1.1,1,1.6,1.6c0.2,0.2,0.2,0.7,0.1,1C74.1,64.2,73.7,64.3,73.4,64.6z"/>
		<path class="st2" d="M62.2,75.7c-0.3-0.2-0.6-0.2-0.8-0.4c-0.5-0.5-1.1-1-1.5-1.5c-0.4-0.5-0.4-1.1,0.1-1.4c0.3-0.2,1-0.2,1.3,0
			c0.6,0.4,1.2,1,1.6,1.6c0.2,0.3,0.2,0.8,0.1,1.1C62.9,75.3,62.5,75.5,62.2,75.7z"/>
		<path class="st2" d="M67,65.6c0.2-0.3,0.4-0.7,0.6-0.8c0.3-0.1,0.8-0.1,1,0.1c0.6,0.5,1.3,1.1,1.7,1.7c0.2,0.3,0.1,1-0.2,1.3
			c-0.2,0.2-0.9,0.3-1.2,0.1c-0.6-0.4-1.2-1.1-1.7-1.6C67.2,66.1,67.1,65.9,67,65.6z"/>
		<path class="st2" d="M56,76.8c0-0.7,0.8-1.3,1.4-0.9c0.8,0.5,1.5,1.2,2,2c0.5,0.6-0.1,1.5-0.9,1.5C57.8,79.3,56,77.5,56,76.8z"/>
		<path class="st2" d="M66.9,70.8c0,0.9-0.9,1.4-1.6,0.9c-0.7-0.5-1.3-1.1-1.8-1.8c-0.2-0.2-0.1-0.9,0.1-1.2c0.2-0.2,0.9-0.4,1-0.3
			c0.8,0.6,1.5,1.4,2.2,2.1C66.9,70.6,66.9,70.7,66.9,70.8z"/>
	</g>
</g>
</svg>
