<?xml version="1.0" encoding="utf-8"?>
<!-- Generator: Adobe Illustrator 24.0.3, SVG Export Plug-In . SVG Version: 6.00 Build 0)  -->
<svg version="1.1" id="Layer_1" xmlns="http://www.w3.org/2000/svg" xmlns:xlink="http://www.w3.org/1999/xlink" x="0px" y="0px"
	 viewBox="0 0 88.4 83.9" style="enable-background:new 0 0 88.4 83.9;" xml:space="preserve">
<style type="text/css">
	.st0{fill:none;stroke:#7B8589;stroke-width:2;stroke-miterlimit:10;}
	.st1{fill:#7B8589;}
	.st2{fill:#FFFFFF;}
</style>
<g>
	<g id="appoint_x5F_icon_9_">
		<g>
			<path class="st0" d="M81.3,30.5H1.1V12.4c0-2,1.6-3.6,3.6-3.6h73.1c2,0,3.6,1.6,3.6,3.6V30.5z"/>
			<rect x="1.1" y="30.5" class="st0" width="80.2" height="45.5"/>
			<rect x="15.6" y="39.4" class="st0" width="7.7" height="7.6"/>
			<rect x="34" y="39.4" class="st0" width="7.7" height="7.6"/>
			<rect x="52.9" y="39.4" class="st0" width="7.2" height="7.2"/>
			<rect x="15.6" y="57.2" class="st0" width="7.8" height="7.7"/>
			<rect x="34" y="57.2" class="st0" width="8.4" height="8.3"/>
			<rect x="52.9" y="57.2" class="st0" width="8.8" height="8.7"/>
			<line class="st0" x1="27.1" y1="0.1" x2="27.1" y2="17.5"/>
			<line class="st0" x1="55.3" y1="0.1" x2="55.3" y2="17.5"/>
		</g>
	</g>
	<g>
		<g>
			<path class="st1" d="M67.8,42.7c-11.3,0-20.5,9.2-20.5,20.5s9.2,20.5,20.5,20.5s20.5-9.2,20.5-20.5S79.1,42.7,67.8,42.7z
				 M67.8,82.1c-10.5,0-19-8.5-19-19s8.5-19,19-19s19,8.5,19,19S78.3,82.1,67.8,82.1L67.8,82.1z"/>
		</g>
		<ellipse class="st2" cx="67.7" cy="63.2" rx="19" ry="19"/>
		<path class="st1" d="M68.3,51h-1.8v13.3l5.7,8.1l1.3-1.8l-5.1-7.3V51z"/>
	</g>
</g>
</svg>
