<?xml version="1.0" encoding="utf-8"?>
<!-- Generator: Adobe Illustrator 24.0.3, SVG Export Plug-In . SVG Version: 6.00 Build 0)  -->
<svg version="1.1" id="Layer_1" xmlns="http://www.w3.org/2000/svg" xmlns:xlink="http://www.w3.org/1999/xlink" x="0px" y="0px"
	 viewBox="0 0 116.4 116.3" style="enable-background:new 0 0 116.4 116.3;" xml:space="preserve">
<style type="text/css">
	.st0{fill:#0051BF;stroke:#0051BF;stroke-width:3;stroke-miterlimit:10;}
	.st1{fill:none;stroke:#0051BF;stroke-width:3;stroke-miterlimit:10;}
</style>
<g>
	<path class="st0" d="M28.6,84.1c-0.1-0.2-0.3-0.5-0.4-0.7c-1-6.6-2-13.1-3-19.7c-0.2-1.3-0.4-2.7-0.6-4c0-0.1,0-0.1-0.1-0.2
		c-0.2,0.9-0.5,1.8-0.7,2.7c-0.1,0.2-0.1,0.4-0.2,0.6c-0.1,0.4-0.3,0.5-0.7,0.5c-3.2,0-6.5,0-9.7,0c0-0.5,0-0.9,0-1.3
		c3.1,0,6.2,0,9.3,0c0.4-1.5,0.8-3,1.2-4.5c0.1-0.4,0.2-0.8,0.3-1.3c0.1-0.4,0.2-0.8,0.7-0.8c0.5,0,0.6,0.4,0.6,0.8
		c0.3,2.1,0.6,4.1,0.9,6.2c0.8,5,1.5,10,2.3,15c0-0.5,0.1-1,0.1-1.6c0.4-4.5,0.7-9.1,1.1-13.6c0.3-4.1,0.6-8.2,0.9-12.3
		c0.2-3.2,0.5-6.3,0.8-9.5c0-0.3,0.1-0.6,0.3-0.7c0.4-0.4,0.9,0,1,0.6c0.1,1.3,0.2,2.5,0.3,3.8c0.3,3.5,0.7,7.1,1,10.6
		c0.3,3.2,0.6,6.4,0.9,9.6c0,0.2,0,0.4,0.1,0.6c0.5-0.8,0.9-1.6,1.3-2.4c0.2-0.4,0.5-0.5,0.9-0.5c5.3,0,10.5,0,15.8,0
		c0.2,0,0.4,0,0.6,0c0,0,0-0.1,0-0.1c-0.7-0.6-1.5-1.1-2.2-1.7c-1.7-1.4-3.5-2.7-5.1-4.1c-1.9-1.6-3.4-3.5-4-5.9
		c-1.3-5.1,1.7-8.9,6-10.1c3.5-1,6.8-0.4,9.6,2.1c0.2,0.2,0.4,0.3,0.5,0.5c0.2,0.2,0.3,0.4,0.5,0.6c1-1.3,2.2-2.2,3.7-2.8
		c3.5-1.3,6.8-1.1,9.9,1c3.3,2.3,4.1,6,2.7,9.6c-0.8,1.9-2,3.4-3.5,4.6c-2.4,2-4.8,3.9-7.3,5.8c-0.1,0.1-0.2,0.2-0.5,0.4
		c0.3,0,0.5,0,0.6,0c5.1,0,10.3,0,15.4,0c0.5,0,0.8,0.1,1,0.6c0.4,0.8,0.8,1.5,1.3,2.4c0.1-1,0.2-1.8,0.3-2.7
		c0.2-2.7,0.5-5.4,0.7-8.1c0.3-3.5,0.6-7.1,1-10.6c0.1-1.1,0.2-2.1,0.3-3.2c0-0.4,0.2-0.7,0.6-0.7c0.4,0,0.6,0.2,0.6,0.6
		c0.1,1.7,0.3,3.3,0.4,5c0.2,2.3,0.4,4.6,0.5,6.9c0.2,2.5,0.4,5.1,0.6,7.6c0.2,2.7,0.4,5.3,0.6,8c0.2,2.5,0.4,5,0.6,7.5
		c0.1,0.7,0.1,1.5,0.3,2.2c0.2-1,0.3-2,0.5-3c0.6-4.1,1.2-8.3,1.9-12.5c0.3-1.9,0.6-3.8,0.9-5.8c0-0.2,0.1-0.5,0.3-0.7
		c0.3-0.4,0.9-0.1,1.1,0.5c0.5,1.8,0.9,3.6,1.4,5.4c0,0.2,0.1,0.3,0.1,0.4c2.5,0,4.9,0,7.3,0c0.3,0,0.6,0,0.9,0c0,0.4,0,0.8,0,1.2
		c-0.8,0-1.6,0-2.3,0c-2.1,0-4.1,0-6.2,0c-0.5,0-0.7-0.2-0.9-0.7c-0.1-0.6-0.3-1.3-0.5-1.9c-0.1-0.4-0.2-0.8-0.3-1.2
		c-0.3,1.2-0.4,2.4-0.6,3.7c-1,6.8-2,13.5-3.1,20.3c0,0.2-0.2,0.5-0.4,0.7c-0.2,0-0.4,0-0.6,0c-0.5-0.4-0.4-1.1-0.4-1.6
		c-0.3-3.3-0.5-6.7-0.8-10c-0.2-3.1-0.5-6.2-0.7-9.3c-0.3-3.3-0.5-6.5-0.8-9.8c-0.1-1.7-0.3-3.5-0.5-5.2c-0.1,0.9-0.2,1.7-0.2,2.6
		c-0.4,3.9-0.7,7.8-1.1,11.7c-0.1,1.5-0.2,2.9-0.4,4.4c0,0.2-0.2,0.5-0.4,0.7c-0.3,0.2-0.6,0-0.8-0.2c-0.3-0.5-0.6-0.9-0.9-1.4
		c-0.4-0.8-0.8-1.5-1.2-2.3c-0.2-0.3-0.4-0.4-0.7-0.4c-5.6,0-11.1,0-16.7,0c-0.2,0-0.4,0-0.6,0c-0.1-0.7-0.1-1.3,0.6-1.9
		c2.2-1.7,4.5-3.5,6.6-5.2c1.6-1.3,3.1-2.6,4.1-4.4c2.5-4.5,0.4-9.4-4.7-10.5C66,40.5,63.4,41,61.2,43c-0.7,0.6-1.2,1.5-1.8,2.3
		c-0.1,0.1-0.2,0.3-0.3,0.5c-0.2-0.3-0.4-0.6-0.5-0.9c-1.7-3-4.4-4.1-7.7-4c-2.4,0.1-4.4,1-6,2.9c-1.6,1.9-1.7,4.1-1,6.4
		c0.6,2.1,2,3.7,3.6,5c1.9,1.6,3.9,3.1,5.8,4.6c0.7,0.5,1.3,1.1,2,1.6c0.4,0.3,0.6,0.6,0.5,1.1c0,0.2,0,0.4,0,0.6
		c-0.2,0-0.4,0-0.6,0c-5.7,0-11.4,0-17.1,0c-0.4,0-0.7,0.1-0.9,0.5c-0.5,1-1,1.9-1.5,2.9c-0.1,0.3-0.3,0.6-0.5,0.7
		c-0.2,0.1-0.5,0.2-0.7,0.2c-0.2-0.1-0.3-0.4-0.4-0.6c-0.1-1.2-0.2-2.4-0.3-3.6c-0.4-3.9-0.7-7.8-1.1-11.7c-0.1-1.1-0.2-2.2-0.4-3.3
		c-0.1,1.4-0.2,2.9-0.3,4.3c-0.2,2.9-0.5,5.8-0.7,8.7c-0.2,2.7-0.4,5.3-0.6,8c-0.2,2.5-0.4,5-0.6,7.5c-0.2,2.1-0.3,4.2-0.5,6.3
		c0,0.3-0.2,0.7-0.4,1C29,84.1,28.8,84.1,28.6,84.1z"/>
	<circle class="st1" cx="58.3" cy="58.2" r="56.5"/>
</g>
</svg>
