<?xml version="1.0" encoding="utf-8"?>
<!-- Generator: Adobe Illustrator 24.0.3, SVG Export Plug-In . SVG Version: 6.00 Build 0)  -->
<svg version="1.1" id="Layer_1" xmlns="http://www.w3.org/2000/svg" xmlns:xlink="http://www.w3.org/1999/xlink" x="0px" y="0px"
	 viewBox="0 0 53.6 82.3" style="enable-background:new 0 0 53.6 82.3;" xml:space="preserve">
<style type="text/css">
	.st0{fill:#7B8589;}
</style>
<g>
	<g>
		<g>
			<path class="st0" d="M26.8,0.1c-8.9,0-16.1,7.5-16.1,16.7v24.4c0,9.2,7.2,16.7,16.1,16.7s16.1-7.5,16.1-16.7V16.8
				C42.9,7.6,35.7,0.1,26.8,0.1z M26.8,54.4c-6.3,0-11.5-5-12.4-11.4h24.7C38.4,49.4,33.2,54.4,26.8,54.4z M39.3,39.4h-25V16.8
				c0-7.2,5.6-13.1,12.5-13.1s12.5,5.9,12.5,13.1V39.4z"/>
		</g>
	</g>
	<g>
		<g>
			<path class="st0" d="M51.8,32.3c-1,0-1.8,0.8-1.8,1.8v7.1c0,12.8-10.4,23.2-23.2,23.2S3.6,54,3.6,41.2v-7.1c0-1-0.8-1.8-1.8-1.8
				s-1.8,0.8-1.8,1.8v7.1c0,14.2,11.1,25.8,25,26.7v10.8h-8.9c-1,0-1.8,0.8-1.8,1.8c0,1,0.8,1.8,1.8,1.8h21.4c1,0,1.8-0.8,1.8-1.8
				c0-1-0.8-1.8-1.8-1.8h-8.9V67.9c13.9-0.9,25-12.5,25-26.7v-7.1C53.6,33.1,52.8,32.3,51.8,32.3z"/>
		</g>
	</g>
</g>
</svg>
