<?xml version="1.0" encoding="utf-8"?>
<!-- Generator: Adobe Illustrator 24.0.3, SVG Export Plug-In . SVG Version: 6.00 Build 0)  -->
<svg version="1.1" id="Layer_1" xmlns="http://www.w3.org/2000/svg" xmlns:xlink="http://www.w3.org/1999/xlink" x="0px" y="0px"
	 viewBox="0 0 126.6 126.5" style="enable-background:new 0 0 126.6 126.5;" xml:space="preserve">
<style type="text/css">
	.st0{fill:#D4E9FF;}
	.st1{fill:none;stroke:#0086FA;stroke-width:4;}
</style>
<g id="ywI8DW.tif_2_">
	<g>
		<circle class="st0" cx="63.2" cy="63.2" r="63"/>
	</g>
	<g>
		<path class="st1" d="M24.9,50.1c0.1-0.6,0.3-1.3,0.4-1.9c1.4-5.7,6.9-10.3,13.8-9.9c5.8,0.3,11.1,5,12.1,10.9
			c1.1,6.1-2.3,12.2-8,14.5c-0.5,0.2-0.7,0.5-0.7,1c0,10.4,0,20.9,0,31.3c0,2.8-0.9,4.7-3.6,5.6c-0.5,0-1,0-1.5,0
			c-3-1.1-3.7-2.2-3.7-5.4c0-10.5,0-20.9,0-31.4c0-0.6-0.1-0.9-0.8-1.2c-4.1-1.8-6.7-4.9-7.8-9.2c-0.1-0.5-0.2-1.1-0.3-1.7
			C24.9,51.9,24.9,51,24.9,50.1z"/>
		<path class="st1" d="M87.5,101.6c-0.1,0-0.2-0.1-0.2-0.1c-2.2-0.7-3.4-2.2-3.4-4.5c0-10.7,0-21.4,0-32.1c0-0.7-0.1-1-0.8-1.3
			c-5.3-2.3-8.6-7.8-8-13.4c0.6-5.9,4.9-10.6,10.6-11.7c7.4-1.5,14.7,3.7,15.7,11.2c0,0.2,0.1,0.4,0.1,0.6c0,0.8,0,1.7,0,2.5
			c0,0.1-0.1,0.3-0.1,0.4c-0.8,4.9-3.4,8.4-7.9,10.4c-0.7,0.3-0.8,0.6-0.8,1.3c0,10.7,0,21.3,0,32c0,1.5-0.4,2.8-1.6,3.7
			c-0.6,0.5-1.4,0.7-2.1,1.1C88.5,101.6,88,101.6,87.5,101.6z"/>
		<path class="st1" d="M64,24.9c0.6,0.3,1.2,0.5,1.7,0.8c1.1,0.8,1.8,1.9,1.9,3.2c0,0.4,0,0.8,0,1.2c0,10.5,0,21,0,31.5
			c0,0.6,0.2,0.9,0.8,1.2c5.5,2.3,8.7,8,8,13.9c-0.7,5.8-5.3,10.5-11.2,11.4c-8.4,1.3-15.8-5.6-15.2-14c0.4-5.4,3.2-9.1,8.1-11.3
			c0.6-0.3,0.7-0.5,0.7-1.1c0-10.5,0-20.9,0-31.4c0-3.2,0.7-4.3,3.7-5.5C63,24.9,63.5,24.9,64,24.9z"/>
		<path class="st1" d="M89,24.9c0.2,0.1,0.4,0.1,0.6,0.2c2,0.7,3.4,2.7,3.1,4.7c-0.3,2.3-2.1,3.9-4.3,3.9c-2.2,0-4-1.5-4.4-3.7
			c-0.4-2.1,0.9-4.2,3-4.9c0.2-0.1,0.4-0.2,0.6-0.2C88,24.9,88.5,24.9,89,24.9z"/>
		<path class="st1" d="M38.8,24.9c0.8,0.4,1.7,0.7,2.3,1.2c1.5,1.3,1.8,3.5,0.9,5.3c-0.9,1.7-2.9,2.6-4.7,2.2
			c-2-0.4-3.4-2.1-3.6-4.1c-0.1-1.9,1.1-3.7,3-4.4c0.3-0.1,0.5-0.2,0.8-0.3C37.9,24.9,38.4,24.9,38.8,24.9z"/>
		<path class="st1" d="M62.5,101.6c-0.2-0.1-0.4-0.2-0.6-0.2c-2.1-0.7-3.3-2.7-3-5c0.3-2,2.2-3.6,4.3-3.6c2.1,0,4,1.6,4.3,3.6
			c0.4,2.2-0.9,4.3-3,5c-0.2,0.1-0.4,0.2-0.6,0.2C63.5,101.6,63,101.6,62.5,101.6z"/>
	</g>
</g>
</svg>
