<?xml version="1.0" encoding="utf-8"?>
<!-- Generator: Adobe Illustrator 24.0.3, SVG Export Plug-In . SVG Version: 6.00 Build 0)  -->
<svg version="1.1" id="Layer_1" xmlns="http://www.w3.org/2000/svg" xmlns:xlink="http://www.w3.org/1999/xlink" x="0px" y="0px"
	 viewBox="0 0 116.4 116.3" style="enable-background:new 0 0 116.4 116.3;" xml:space="preserve">
<style type="text/css">
	.st0{fill:none;stroke:#0051BF;stroke-width:3;stroke-miterlimit:10;}
	.st1{fill:#0051BF;}
	.st2{fill:#0051BF;stroke:#0051BF;stroke-width:3;stroke-miterlimit:10;}
	.st3{fill:#75AA0E;}
</style>
<g>
	<circle class="st0" cx="58.3" cy="58.2" r="56.5"/>
	<g>
		<path class="st1" d="M56,33.5c0,1.5,0,2.9,0,4.4c0,1.2-0.5,1.8-1.8,1.8c-2.9,0-5.9,0.1-8.8,0.1c-1.1,0-1.7-0.5-1.7-1.7
			c0-2.9-0.1-5.8-0.1-8.7c0-1.4,0.5-1.9,1.9-1.9c2.8,0,5.7-0.1,8.5-0.1c1.4,0,1.9,0.5,1.9,1.8c0,1.4,0,2.9,0,4.3
			C55.9,33.5,55.9,33.5,56,33.5z M49.7,38.9C49.7,38.9,49.7,38.9,49.7,38.9c1.5-0.1,2.9-0.1,4.4-0.1c0.8,0,1.1-0.3,1.1-1.1
			c-0.1-2.8-0.1-5.7-0.1-8.5c0-1.1,0-1.1-1.1-1.1c-2.8,0-5.7,0.1-8.5,0.1c-0.8,0-1,0.3-1,1.1c0.1,2.9,0.1,5.8,0.1,8.7
			c0,0.7,0.3,0.9,0.9,0.9C46.8,38.9,48.3,38.9,49.7,38.9z"/>
		<g>
			<path class="st2" d="M45.9,65c-3.1-0.3-5.9,1.7-6.4,5c-1.2,7.4,0.1,14,6.3,19c1.7,1.4,3.3,2.8,4.9,4.3c1.2,1.1,1.8,2.6,2.1,4.2
				c0,0.2-0.2,0.5-0.3,0.7C52.3,98,52,97.8,52,97.6c-0.6-2.7-2.4-4.5-4.4-6.2c-1.6-1.3-3.1-2.6-4.6-4c-2.9-2.9-4.3-6.6-4.6-10.6
				c-0.2-2-0.2-4,0-5.9c0.5-4.3,3-6.5,7.4-7c0-3.8,0-7.7,0-11.6c-1,0-1.8,0-2.7,0c-1.7,0-2.7-1-2.7-2.6c-0.1-7.1-0.2-14.2-0.3-21.4
				c-0.1-5.3,3.3-9.3,8.4-10c4.8-0.7,9.8,2.9,10.5,7.7c0.1,0.7,0.2,1.5,0.2,2.2c0.1,6.9,0.1,13.9,0.2,20.8c0,2.2-0.8,3-3,3.1
				c-0.6,0-1.2,0-1.9,0c0,1.2,0,2.3,0,3.6c1.3-1.3,2.8-2.1,4.6-1.6c1.7,0.5,2.8,1.7,3.2,3.5c2.6-2.9,6.5-2.1,7.8,1.5
				c1-0.4,2-1.1,3-1.3c2.5-0.5,4.9,1.5,4.9,4.1c0.1,5.3,0.2,10.5,0.1,15.8c0,3.3-0.6,6.4-1.9,9.4c-1.4,3.1-2,6.4-1.8,9.8
				c0,0.4,0.3,1-0.4,1.1c-0.1,0-0.3-0.7-0.4-1.1c-0.5-4.1,0.7-7.8,2.2-11.5c1.1-2.6,1.5-5.3,1.5-8c0-5.1-0.1-10.3-0.1-15.4
				c0-1.9-1.5-3.4-3.4-3.4c-1.8-0.1-3.3,1.2-3.5,3c-0.1,0.8,0,1.7-0.1,2.6c0,0.2-0.2,0.5-0.3,0.7c-0.2-0.2-0.4-0.4-0.5-0.7
				c-0.1-1.3,0-2.7-0.1-4c0-1.6-1.2-3.1-2.8-3.3c-1.7-0.3-3.4,0.6-3.9,2.2c-0.2,0.7-0.2,1.5-0.3,2.2c0,1,0.1,2,0,3
				c0,0.2-0.3,0.5-0.4,0.7c-0.1-0.2-0.4-0.5-0.4-0.7c-0.1-2-0.1-3.9-0.1-5.9c-0.1-2.7-2.9-4.2-5.3-2.9c-1.5,0.9-1.7,2.3-1.7,3.8
				c0,1.5,0.1,3.1,0.1,4.6c0,0.3-0.2,0.6-0.4,0.8c-0.1-0.3-0.4-0.6-0.4-0.8c0-3.8,0-7.7,0-11.5c-2.5,0-4.8,0-7.2,0
				c0,0.5,0,0.9,0,1.3c0.1,6.3,0.2,12.7,0.2,19c0,0.2,0,0.4,0,0.5c-0.1,0.2-0.3,0.3-0.4,0.5c-0.1-0.2-0.3-0.3-0.4-0.5
				c-0.1-0.1,0-0.3,0-0.5c0-2.3-0.1-4.6-0.1-6.9C45.9,65.5,45.9,65.2,45.9,65z M58.7,38.4c-0.1,0-0.2,0-0.2,0c0-3.6,0.1-7.3,0-10.9
				c0-1.1-0.3-2.3-0.8-3.3c-1.6-3.8-5.7-5.8-9.8-4.9c-4.1,0.9-6.9,4.4-6.9,8.8c0.1,7.2,0.2,14.3,0.3,21.5c0,1.5,0.5,1.9,2,1.9
				c4.5,0,9-0.1,13.5-0.2c1.4,0,1.9-0.6,1.9-2C58.7,45.7,58.7,42.1,58.7,38.4z"/>
			<path class="st3" d="M49.9,50c-1.5,0-2.7-1.2-2.7-2.6c0-1.5,1.1-2.7,2.6-2.7c1.5,0,2.7,1.2,2.8,2.7C52.6,48.8,51.4,50,49.9,50z
				 M51.8,47.3c0-1.1-0.8-1.9-1.9-1.9c-1.1,0-1.8,0.7-1.9,1.8c0,1.1,0.7,1.9,1.8,1.9C51,49.2,51.8,48.5,51.8,47.3z"/>
		</g>
		<path class="st1" d="M49.6,30.8c0.8-0.3,1.4-0.7,2.1-0.7c1.3,0,2.3,1.6,1.9,3c-0.3,1.2-1.1,1.9-2,2.6c-2.2,1.7-1.5,1.6-3.6,0
			c-0.9-0.7-1.7-1.5-1.9-2.6c-0.3-1.1,0.2-2.3,1.1-2.8C48.2,29.8,49,30.3,49.6,30.8z M53,32.6c-0.1,0-0.1-0.1-0.2-0.1
			c0.1-0.8-0.3-1.3-1-1.4c-0.4-0.1-1,0.1-1.2,0.4c-0.6,0.7-1,0.7-1.6,0c-0.3-0.3-1-0.5-1.3-0.4c-0.4,0.2-0.9,0.9-0.8,1.3
			c0.1,0.7,0.4,1.5,0.9,2c1.7,1.9,2.5,1.9,4.2,0C52.3,33.9,52.6,33.2,53,32.6z"/>
	</g>
</g>
</svg>
