<?xml version="1.0" encoding="utf-8"?>
<!-- Generator: Adobe Illustrator 24.0.3, SVG Export Plug-In . SVG Version: 6.00 Build 0)  -->
<svg version="1.1" id="Layer_1" xmlns="http://www.w3.org/2000/svg" xmlns:xlink="http://www.w3.org/1999/xlink" x="0px" y="0px"
	 viewBox="0 0 96.5 96.1" style="enable-background:new 0 0 96.5 96.1;" xml:space="preserve">
<style type="text/css">
	.st0{fill:#6BBC46;}
</style>
<g>
	<g>
		<g>
			<path class="st0" d="M48.2,0.1c-26.5,0-48,21.5-48,48s21.5,48,48,48s48-21.5,48-48S74.7,0.1,48.2,0.1z M48.2,90.1
				c-23.2,0-42-18.8-42-42s18.8-42,42-42s42,18.8,42,42S71.4,90.1,48.2,90.1z"/>
		</g>
	</g>
	<g>
		<g>
			<circle class="st0" cx="33.2" cy="33.1" r="6"/>
		</g>
	</g>
	<g>
		<g>
			<circle class="st0" cx="63.2" cy="33.1" r="6"/>
		</g>
	</g>
	<g>
		<g>
			<path class="st0" d="M69.2,48.1c0,11.6-9.4,21-21,21s-21-9.4-21-21h-6c0,14.9,12.1,27,27,27s27-12.1,27-27H69.2z"/>
		</g>
	</g>
</g>
</svg>
