<?xml version="1.0" encoding="utf-8"?>
<!-- Generator: Adobe Illustrator 24.0.3, SVG Export Plug-In . SVG Version: 6.00 Build 0)  -->
<svg version="1.1" id="Layer_1" xmlns="http://www.w3.org/2000/svg" xmlns:xlink="http://www.w3.org/1999/xlink" x="0px" y="0px"
	 viewBox="0 0 96.5 96.1" style="enable-background:new 0 0 96.5 96.1;" xml:space="preserve">
<style type="text/css">
	.st0{fill:#F24A23;}
</style>
<g>
	<g>
		<g>
			<path class="st0" d="M82.2,14.1C73.1,5.1,61.1,0.1,48.2,0.1s-24.9,5-33.9,14.1C5.2,23.2,0.2,35.2,0.2,48.1s5,24.9,14.1,33.9
				c9.1,9.1,21.1,14.1,33.9,14.1s24.9-5,33.9-14.1c9.1-9.1,14.1-21.1,14.1-33.9S91.2,23.2,82.2,14.1z M48.2,90.3
				c-23.3,0-42.3-19-42.3-42.3s19-42.3,42.3-42.3s42.3,19,42.3,42.3S71.5,90.3,48.2,90.3z"/>
		</g>
	</g>
	<g>
		<g>
			<circle class="st0" cx="33.8" cy="29.4" r="6"/>
		</g>
	</g>
	<g>
		<g>
			<circle class="st0" cx="63.8" cy="29.4" r="6"/>
		</g>
	</g>
	<path class="st0" d="M73.8,75.1c0-11.3-11.5-20.4-25.7-20.4c-14.2,0-25.7,9.1-25.7,20.4C40.3,63.4,57.4,63.9,73.8,75.1L73.8,75.1z"
		/>
</g>
</svg>
