<?xml version="1.0" encoding="utf-8"?>
<!-- Generator: Adobe Illustrator 24.0.3, SVG Export Plug-In . SVG Version: 6.00 Build 0)  -->
<svg version="1.1" id="Layer_1" xmlns="http://www.w3.org/2000/svg" xmlns:xlink="http://www.w3.org/1999/xlink" x="0px" y="0px"
	 viewBox="0 0 96.5 96.1" style="enable-background:new 0 0 96.5 96.1;" xml:space="preserve">
<style type="text/css">
	.st0{fill:none;stroke:#F58021;stroke-width:5;stroke-miterlimit:10;}
	.st1{fill:#F58021;}
</style>
<g>
	<circle class="st0" cx="48.3" cy="48.1" r="45.5"/>
	<g>
		<circle class="st1" cx="33.3" cy="30.8" r="7.7"/>
		<circle class="st1" cx="62.4" cy="30.8" r="7.7"/>
		<path class="st1" d="M48.3,58.5c-7.8,0-15.2,3.3-20.3,9c-0.8,0.9-0.7,2.2,0.2,2.9c0.9,0.8,2.2,0.7,2.9-0.2
			c4.4-4.9,10.6-7.7,17.2-7.7s12.9,2.8,17.2,7.7c0.4,0.5,1,0.7,1.6,0.7c0.5,0,1-0.2,1.4-0.5c0.9-0.8,0.9-2.1,0.2-2.9
			C63.5,61.8,56,58.5,48.3,58.5z"/>
	</g>
</g>
</svg>
