<?xml version="1.0" encoding="utf-8"?>
<!-- Generator: Adobe Illustrator 24.0.3, SVG Export Plug-In . SVG Version: 6.00 Build 0)  -->
<svg version="1.1" id="Layer_1" xmlns="http://www.w3.org/2000/svg" xmlns:xlink="http://www.w3.org/1999/xlink" x="0px" y="0px"
	 viewBox="0 0 126.2 126.2" style="enable-background:new 0 0 126.2 126.2;" xml:space="preserve">
<style type="text/css">
	.st0{fill:#D4E9FF;}
	.st1{fill:none;stroke:#0086FA;stroke-width:2;}
	.st2{fill:none;stroke:#0086FA;stroke-width:4;}
	.st3{fill:none;stroke:#0086FA;}
</style>
<g id="ywI8DW.tif_1_">
	<g>
		<circle class="st0" cx="63.1" cy="63.2" r="63"/>
	</g>
	<g id="Hlv0wI.tif_1_">
		<g>
			<path class="st1" d="M30.2,64.7c0-12.2,0-24.4,0-36.5c0-1.3,0.1-1.4,1.4-1.4c5.1,0,10.2,0,15.4,0c0.5,0,0.8-0.1,1-0.7
				c0.7-1.6,1.9-2.4,3.6-2.4c1.2,0,2.4,0,3.7,0c4.5,0,9,0,13.6,0c1.8,0,3.1,0.9,3.7,2.6c0.2,0.4,0.4,0.5,0.8,0.5
				c5.2,0,10.5,0,15.7,0c4.2,0,7.2,2.9,7.2,7.2c0,2.7,0,5.4,0,8.1c0,3.4-2.1,6.1-5.4,6.9c-0.4,0.1-0.5,0.2-0.5,0.6
				c0,0.2,0,0.4,0,0.6c0,17.1,0,34.1,0,51.2c0,1.3-0.1,1.4-1.4,1.4c-19.1,0-38.2,0-57.4,0c-1.2,0-1.3-0.1-1.3-1.3
				C30.2,89.1,30.2,76.9,30.2,64.7z M79.9,30.9c-3,0-5.8,0-8.6,0c-0.1,0-0.2,0-0.3,0.1c-0.9,0.6-2,0.7-3.1,0.7
				c-0.2,0-0.5,0.1-0.7,0.3c-0.7,0.9-1.6,1.6-2.6,2c-2.5,1-5.1,1.1-7.7,0.4C55.4,34,54,33.3,53,31.9c-0.1-0.2-0.4-0.2-0.6-0.2
				c-1.1,0-2.1,0-3-0.6c-0.2-0.1-0.4-0.1-0.7-0.1c-2.5,0-5.1,0-7.6,0c-0.2,0-0.5,0-0.7,0c0,18,0,36,0,53.9c0.3,0,0.5,0,0.7,0
				c2.6,0,5.2,0,7.8,0c0.9,0,1.1,0.2,1.1,1.1c0,2.4,0,4.8,0,7.2c0,0.3,0,0.5,0,0.8c10,0,19.9,0,29.8,0c0-0.2,0-0.3,0-0.4
				c0-3.6,0-7.3,0-10.9c0-0.3-0.1-0.6-0.2-0.9c-0.8-2.3-1.7-4.6-2.5-6.9C77.1,74.7,77,74.3,77,74c0-9.8,0-19.6,0-29.4
				c0-1.6,0.9-2.9,2.4-3.4c0.4-0.2,0.5-0.4,0.5-0.8c0-2.4,0-4.8,0-7.2C79.9,32.5,79.9,31.7,79.9,30.9z M31.6,101.2
				c0.3,0,0.5,0,0.7,0c18.6,0,37.1,0,55.7,0c0.6,0,0.8-0.2,0.7-0.7c0-16.9,0-33.8,0-50.7c0-0.2,0-0.5,0-0.7c-1.5,0-2.9,0-4.4,0
				c0,0.3,0,0.6,0,0.9c0,7.9,0,15.8,0,23.7c0,0.4-0.1,0.9-0.2,1.3c-0.8,2.2-1.7,4.5-2.5,6.7c-0.1,0.4-0.2,0.8-0.2,1.2
				c0,3.8,0,7.6,0,11.5c0,0.9-0.2,1.1-1.1,1.1c-10.2,0-20.4,0-30.7,0c-0.4,0-0.8-0.2-1.1-0.4c-3.1-2.9-6.1-5.8-9.1-8.6
				c-0.4-0.3-0.5-0.7-0.5-1.2c0-18.2,0-36.5,0-54.7c0-0.9,0.2-1,1.1-1c2.4,0,4.7,0,7.1,0c0.2,0,0.5,0,0.8,0
				c-0.1-0.5-0.3-0.9-0.4-1.3c-5.3,0-10.6,0-15.9,0C31.6,52.6,31.6,76.9,31.6,101.2z M88.8,47.6c0-0.4,0-0.6,0-0.9
				c0-5.9,0-11.8,0-17.6c0-0.2,0-0.3,0-0.5c0-0.3-0.1-0.5-0.5-0.5c-5,0-10.1,0-15.1,0c-0.2,0-0.4,0.1-0.5,0.3
				c-0.1,0.3-0.2,0.6-0.3,1c0.3,0,0.5,0,0.8,0c2.4,0,4.7,0,7.1,0c0.9,0,1.1,0.2,1.1,1.1c0,3.2,0,6.4,0,9.6c0,0.3,0,0.5,0,0.8
				c2.2,0.8,2.9,1.9,2.9,4.2c0,0.8,0,1.6,0,2.4C85.8,47.6,87.2,47.6,88.8,47.6z M60.2,30.2c2.8,0,5.6,0,8.4,0c0.3,0,0.7,0,1-0.1
				c1.2-0.4,2-1.6,1.8-2.8c-0.2-1.3-1.3-2.2-2.7-2.2c-5.6,0-11.2,0-16.8,0c-1.7,0-2.8,1.1-2.8,2.6c0,1.5,1.1,2.6,2.8,2.6
				C54.6,30.2,57.4,30.2,60.2,30.2z M82.8,73.5c0-8.2,0-16.3,0-24.4c-1.5,0-2.9,0-4.4,0c0,8.2,0,16.3,0,24.4
				C80,73.5,81.4,73.5,82.8,73.5z M90.2,47.5c2.4-0.2,4.5-2.6,4.5-5.1c0-2.9,0-5.9,0-8.8c0-2.4-1.7-4.5-4-5.2c-0.1,0-0.3,0-0.5,0
				C90.2,34.7,90.2,41.1,90.2,47.5z M48.6,93.1c0-2.3,0-4.5,0-6.7c-2.3,0-4.6,0-7,0C43.9,88.7,46.2,90.8,48.6,93.1z M82.9,47.6
				c0-1.1,0-2.2,0-3.2c0-1.1-1-1.9-2-2c-1.1-0.1-2.2,0.6-2.3,1.7c-0.1,1.2,0,2.4,0,3.6C80,47.6,81.4,47.6,82.9,47.6z M65.5,31.7
				c-3.6,0-7.1,0-10.6,0C56.8,33.8,63.1,34,65.5,31.7z M80.6,80c0.1,0,0.1,0,0.2,0c0.6-1.6,1.2-3.3,1.8-4.9c-1.3,0-2.5,0-3.8,0
				C79.4,76.7,80,78.3,80.6,80z"/>
			<path class="st2" d="M46.5,61.3c0-7.6,6.1-13.7,13.6-13.7c7.5,0,13.7,6.1,13.7,13.6c0,7.6-6.1,13.7-13.7,13.7
				C52.6,75,46.5,68.9,46.5,61.3z M47.9,61.3c0,6.8,5.4,12.3,12.2,12.3c6.7,0,12.2-5.4,12.3-12.1c0-6.8-5.4-12.3-12.2-12.3
				C53.5,49.1,48,54.5,47.9,61.3z"/>
			<path class="st3" d="M66.9,62.7c-1.5,0-2.9,0-4.3,0c-0.9,0-1,0.2-1,1c0,1.2,0,2.4,0,3.6c0,0.2,0,0.5,0,0.8c-0.9,0-1.8,0-2.7,0
				c0-1.4,0-2.7,0-4.1c0-1.1-0.1-1.2-1.2-1.2c-1.3,0-2.7,0-4.1,0c0-0.9,0-1.7,0-2.6c0.2,0,0.5,0,0.7,0c1.2,0,2.4,0,3.6,0
				c0.9,0,1.1-0.2,1.1-1c0-1.4,0-2.8,0-4.3c0.8,0,1.6,0,2.4,0c0.1,0,0.3,0.3,0.3,0.5c0,1.3,0,2.5,0,3.8c0,0.8,0.2,1,1,1
				c1.3,0,2.5,0,3.8,0c0.4,0,0.6,0.1,0.6,0.5C66.9,61.2,66.9,61.9,66.9,62.7z"/>
		</g>
	</g>
</g>
</svg>
