<?xml version="1.0" encoding="utf-8"?>
<!-- Generator: Adobe Illustrator 24.0.3, SVG Export Plug-In . SVG Version: 6.00 Build 0)  -->
<svg version="1.1" id="Layer_1" xmlns="http://www.w3.org/2000/svg" xmlns:xlink="http://www.w3.org/1999/xlink" x="0px" y="0px"
	 viewBox="0 0 116.4 116.3" style="enable-background:new 0 0 116.4 116.3;" xml:space="preserve">
<style type="text/css">
	.st0{fill:none;stroke:#0051BF;stroke-width:3;stroke-miterlimit:10;}
	.st1{fill:#75AA0E;}
	.st2{fill:#0051BF;stroke:#0051BF;stroke-width:2;stroke-miterlimit:10;}
</style>
<g>
	<circle class="st0" cx="58.3" cy="58.2" r="56.5"/>
	<g>
		<path class="st1" d="M46.9,50.8c-1.2,1.3-1.1,3.3,0.2,4.5l10,9.4c0,0,0,0,0,0c1.3,1.2,3.3,1.1,4.5-0.2l2.9-3.1c0,0,0,0,0,0
			c1.2-1.3,1.1-3.3-0.2-4.5l-10-9.4c-1.3-1.2-3.3-1.1-4.5,0.2L46.9,50.8z M48.5,53.8c-0.4-0.4-0.4-1.1-0.1-1.5l2.9-3.1
			c0.4-0.4,1.1-0.5,1.5-0.1l10,9.4c0.4,0.4,0.5,1.1,0.1,1.5l-2.9,3.1c-0.4,0.4-1.1,0.4-1.5,0.1L48.5,53.8L48.5,53.8z"/>
		<path class="st1" d="M44.3,38.2C44.3,38.2,44.3,38.2,44.3,38.2C43,37,41,37.1,39.8,38.4l-2.9,3.1c0,0,0,0,0,0
			c-1.2,1.3-1.1,3.3,0.2,4.5l3.9,3.6c1.3,1.2,3.3,1.1,4.5-0.2l2.9-3.1c1.2-1.3,1.1-3.3-0.2-4.5L44.3,38.2z M42.8,39.8l3.9,3.6
			c0.4,0.4,0.5,1.1,0.1,1.5L43.9,48c-0.4,0.4-1.1,0.5-1.5,0.1l-3.9-3.6c0,0,0,0,0,0c-0.4-0.4-0.4-1.1-0.1-1.5l2.9-3.1
			c0.2-0.2,0.5-0.3,0.7-0.3C42.3,39.5,42.6,39.6,42.8,39.8z"/>
		<path class="st2" d="M27.7,35.8c-2.8,3-2.6,7.7,0.4,10.5l22.7,21.2c3.5,3.2,7.7,5.6,12.2,7l0.2,0.1c4.2,1.3,8.1,3.5,11.4,6.5
			l4.2,3.9l3.1,2.9c0,0,0,0,0,0c2.1,2,5.5,1.9,7.4-0.3c2-2.1,1.9-5.5-0.3-7.5L86,77.1l-4.2-3.9c-3.2-3-5.7-6.8-7.3-10.9l-0.1-0.2
			c-1.7-4.5-4.3-8.5-7.8-11.7L43.9,29.3c-3-2.8-7.7-2.6-10.5,0.4L27.7,35.8L27.7,35.8z M81,84l4.3-4.6l2.3,2.2
			c1.2,1.2,1.2,3.1,0.2,4.3c-1.1,1.3-3.1,1.5-4.5,0.3L81,84z M30.3,45.4l13-13.9L65.2,52c3.2,3,5.7,6.8,7.3,10.9l0.1,0.2
			c1.7,4.5,4.3,8.5,7.8,11.7l3.4,3.2l-4.3,4.6l-3.4-3.2c-3.5-3.2-7.7-5.6-12.2-7l-0.2-0.1c-4.2-1.3-8.1-3.5-11.4-6.5L30.3,45.4z
			 M28.8,43.9c-1.5-2-1.3-4.8,0.4-6.7l5.8-6.2c1.7-1.8,4.5-2.2,6.6-0.9L28.8,43.9L28.8,43.9z"/>
	</g>
</g>
</svg>
