<?xml version="1.0" encoding="utf-8"?>
<!-- Generator: Adobe Illustrator 24.0.3, SVG Export Plug-In . SVG Version: 6.00 Build 0)  -->
<svg version="1.1" id="Layer_1" xmlns="http://www.w3.org/2000/svg" xmlns:xlink="http://www.w3.org/1999/xlink" x="0px" y="0px"
	 viewBox="0 0 75 57" style="enable-background:new 0 0 75 57;" xml:space="preserve">
<style type="text/css">
	.st0{fill:#FFFFFF;stroke:#0051BF;stroke-width:3;stroke-linecap:round;stroke-miterlimit:10;}
</style>
<g>
	<path class="st0" d="M37.5,1.5C21.4,1.5,7,12.1,1.6,27.8c-0.2,0.5-0.2,1,0,1.5C7,44.9,21.4,55.5,37.5,55.5S68,44.9,73.4,29.2
		c0.2-0.5,0.2-1,0-1.5C68,12.1,53.6,1.5,37.5,1.5L37.5,1.5z M37.5,6c13.9,0,26.4,9,31.4,22.5C63.9,42,51.4,51,37.5,51"/>
	<path class="st0" d="M37.5,15C30.1,15,24,21.1,24,28.5S30.1,42,37.5,42S51,35.9,51,28.5S44.9,15,37.5,15z"/>
</g>
</svg>
