<?xml version="1.0" encoding="utf-8"?>
<!-- Generator: Adobe Illustrator 24.0.3, SVG Export Plug-In . SVG Version: 6.00 Build 0)  -->
<svg version="1.1" id="Layer_1" xmlns="http://www.w3.org/2000/svg" xmlns:xlink="http://www.w3.org/1999/xlink" x="0px" y="0px"
	 viewBox="0 0 72.3 72.2" style="enable-background:new 0 0 72.3 72.2;" xml:space="preserve">
<style type="text/css">
	.st0{fill:#0051BF;}
	.st1{fill:none;stroke:#0086FA;stroke-miterlimit:10;}
	.st2{fill:#0086FA;}
</style>
<g>
	<g>
		<g>
			<path class="st0" d="M72.2,51.1C71.6,60,67.4,66.6,59,70.4C51.4,73.8,42.3,72,36.2,66c-9.8-9.7-19.6-19.5-29.4-29.4
				c-8.8-8.9-8.9-22-0.5-30.4C14.8-2.2,27.9-2,36.8,6.8c9.9,9.7,19.6,19.6,29.4,29.4C70.2,40.3,71.9,45.3,72.2,51.1z M68.5,51.3
				c-0.2-4.7-1.7-9-5.3-12.5c-9.6-9.5-19-19.1-28.6-28.6C27.7,3.3,17.1,3.3,10.3,10c-6.9,6.8-7,17.6,0,24.6
				c9.5,9.6,19,19.1,28.6,28.6c5.3,5.2,11.6,6.6,18.6,3.9C64.5,64.3,67.8,58.7,68.5,51.3z"/>
		</g>
	</g>
	<path class="st1" d="M50,39.6L39.2,50.4c-1.9,1.9-5.1,1.9-7.1,0l-9.3-9.3c-1.9-1.9-1.9-5.1,0-7.1l10.8-10.8c1.9-1.9,5.1-1.9,7.1,0
		l9.3,9.3C52,34.5,52,37.6,50,39.6z"/>
	<circle class="st2" cx="18.7" cy="33.9" r="0.7"/>
	<circle class="st2" cx="25.6" cy="27.1" r="0.7"/>
	<circle class="st2" cx="33.2" cy="20.2" r="0.7"/>
	<circle class="st2" cx="16.2" cy="31.4" r="0.7"/>
	<circle class="st2" cx="23.1" cy="24.5" r="0.7"/>
	<circle class="st2" cx="30.7" cy="17.7" r="0.7"/>
	<circle class="st2" cx="41.1" cy="56.3" r="0.7"/>
	<circle class="st2" cx="48" cy="49.5" r="0.7"/>
	<circle class="st2" cx="55.6" cy="42.6" r="0.7"/>
	<circle class="st2" cx="38.6" cy="53.8" r="0.7"/>
	<circle class="st2" cx="45.5" cy="46.9" r="0.7"/>
	<circle class="st2" cx="53.1" cy="40.1" r="0.7"/>
</g>
</svg>
