<?xml version="1.0" encoding="utf-8"?>
<!-- Generator: Adobe Illustrator 24.0.3, SVG Export Plug-In . SVG Version: 6.00 Build 0)  -->
<svg version="1.1" id="Layer_1" xmlns="http://www.w3.org/2000/svg" xmlns:xlink="http://www.w3.org/1999/xlink" x="0px" y="0px"
	 viewBox="0 0 49.3 49.5" style="enable-background:new 0 0 49.3 49.5;" xml:space="preserve">
<style type="text/css">
	.st0{fill:#8C8C8C;}
</style>
<g>
	<path class="st0" d="M18.1,27L6.2,38.9v-7.8c0-1.7-1.3-3-3-3s-3,1.3-3,3v15c0,1.7,1.3,3,3,3h15c1.7,0,3-1.3,3-3c0-1.7-1.3-3-3-3
		h-7.8l11.9-11.9c1.2-1.2,1.2-3.1,0-4.2C21.1,25.9,19.2,25.9,18.1,27L18.1,27z"/>
	<path class="st0" d="M46.2,0.2h-15c-1.7,0-3,1.3-3,3s1.3,3,3,3H39L27.1,18c-1.2,1.2-1.2,3.1,0,4.2c0.6,0.6,1.4,0.9,2.1,0.9
		s1.5-0.3,2.1-0.9l11.9-11.9v7.8c0,1.7,1.3,3,3,3c1.7,0,3-1.3,3-3v-15C49.2,1.5,47.8,0.2,46.2,0.2z"/>
</g>
</svg>
