<?xml version="1.0" encoding="utf-8"?>
<!-- Generator: Adobe Illustrator 24.0.3, SVG Export Plug-In . SVG Version: 6.00 Build 0)  -->
<svg version="1.1" id="Layer_1" xmlns="http://www.w3.org/2000/svg" xmlns:xlink="http://www.w3.org/1999/xlink" x="0px" y="0px"
	 viewBox="0 0 75.3 80.9" style="enable-background:new 0 0 75.3 80.9;" xml:space="preserve">
<style type="text/css">
	.st0{fill:none;stroke:#0051BF;stroke-width:3;stroke-miterlimit:10;}
</style>
<g id="Latest_x5F_icon_3_">
	<path class="st0" d="M68.8,79.3H6.4c-2.6,0-4.8-2.1-4.8-4.8V6.4c0-2.6,2.1-4.8,4.8-4.8h62.4c2.6,0,4.8,2.1,4.8,4.8v68.1
		C73.6,77.2,71.5,79.3,68.8,79.3z"/>
	<line class="st0" x1="19.6" y1="19.9" x2="55.6" y2="19.9"/>
	<line class="st0" x1="19.6" y1="40.5" x2="55.6" y2="40.5"/>
	<line class="st0" x1="19.6" y1="61" x2="35.6" y2="61"/>
	<g>
		<g>
			<path class="st0" d="M59.3,60.5h-5.5V55c0-0.5-0.4-1-1-1c-0.5,0-1,0.4-1,1v5.5h-5.5c-0.5,0-1,0.4-1,1c0,0.5,0.4,1,1,1h5.5V68
				c0,0.5,0.4,1,1,1c0.5,0,1-0.4,1-1v-5.5h5.5c0.5,0,1-0.4,1-1S59.8,60.5,59.3,60.5z"/>
		</g>
	</g>
</g>
</svg>
