<?xml version="1.0" encoding="utf-8"?>
<!-- Generator: Adobe Illustrator 24.0.3, SVG Export Plug-In . SVG Version: 6.00 Build 0)  -->
<svg version="1.1" id="Layer_1" xmlns="http://www.w3.org/2000/svg" xmlns:xlink="http://www.w3.org/1999/xlink" x="0px" y="0px"
	 viewBox="0 0 203.6 203.9" style="enable-background:new 0 0 203.6 203.9;" xml:space="preserve">
<style type="text/css">
	.st0{fill:none;stroke:#0051BF;stroke-width:3;}
	.st1{fill:#FFFFFF;stroke:#0051BF;stroke-width:3;stroke-miterlimit:10;}
	.st2{fill:#FFFFFF;stroke:#0051BF;stroke-width:3;stroke-linecap:round;stroke-miterlimit:10;}
	.st3{fill:#89B43B;}
</style>
<circle class="st0" cx="101.8" cy="102" r="100"/>
<g id="Latest_x5F_icon_4_">
	<path class="st1" d="M133,140.8H70.6c-2.6,0-4.8-2.1-4.8-4.8V67.9c0-2.6,2.1-4.8,4.8-4.8H133c2.6,0,4.8,2.1,4.8,4.8V136
		C137.8,138.7,135.7,140.8,133,140.8z"/>
	<line class="st2" x1="83.8" y1="81.4" x2="119.8" y2="81.4"/>
	<line class="st2" x1="83.8" y1="102" x2="119.8" y2="102"/>
	<line class="st2" x1="83.8" y1="122.5" x2="99.8" y2="122.5"/>
	<g>
		<g>
			<path class="st3" d="M123.5,122H118v-5.5c0-0.5-0.4-1-1-1c-0.5,0-1,0.4-1,1v5.5h-5.5c-0.5,0-1,0.4-1,1s0.4,1,1,1h5.5v5.5
				c0,0.5,0.4,1,1,1c0.5,0,1-0.4,1-1v-5.5h5.5c0.5,0,1-0.4,1-1S124,122,123.5,122z"/>
		</g>
	</g>
</g>
</svg>
