<?xml version="1.0" encoding="utf-8"?>
<!-- Generator: Adobe Illustrator 24.0.3, SVG Export Plug-In . SVG Version: 6.00 Build 0)  -->
<svg version="1.1" id="Layer_1" xmlns="http://www.w3.org/2000/svg" xmlns:xlink="http://www.w3.org/1999/xlink" x="0px" y="0px"
	 viewBox="0 0 203.6 203.9" style="enable-background:new 0 0 203.6 203.9;" xml:space="preserve">
<style type="text/css">
	.st0{fill:none;stroke:#0051BF;stroke-width:3;}
	.st1{fill:#FFFFFF;stroke:#0051BF;stroke-width:3;stroke-linecap:round;stroke-miterlimit:10;}
	.st2{fill:none;stroke:#75AA0E;stroke-width:3;}
</style>
<g>
	<circle class="st0" cx="101.8" cy="102.2" r="100"/>
	<path class="st1" d="M110.7,66.2c-21.5,0-40.7,14.1-47.8,35c-0.2,0.6-0.2,1.3,0,1.9c7.2,21,26.4,35,47.8,35s40.7-14.1,47.8-35
		c0.2-0.6,0.2-1.3,0-1.9C151.4,80.3,132.1,66.2,110.7,66.2L110.7,66.2z M110.7,72.2c18.6,0,35.2,12,41.8,30c-6.6,18-23.3,30-41.8,30
		"/>
	<path class="st2" d="M110.7,84.2c-9.9,0-18,8.1-18,18s8.1,18,18,18s18-8.1,18-18S120.6,84.2,110.7,84.2z"/>
</g>
</svg>
